<svg width="20" height="20" viewBox="0 0 20 20" fill="none" xmlns="http://www.w3.org/2000/svg">
<g clip-path="url(#clip0_4074_6225)">
<mask id="mask0_4074_6225" style="mask-type:luminance" maskUnits="userSpaceOnUse" x="0" y="0" width="20" height="20">
<path d="M20 0H0V20H20V0Z" fill="white"/>
</mask>
<g mask="url(#mask0_4074_6225)">
<path d="M10.0008 19.7008C15.3579 19.7008 19.7008 15.3579 19.7008 10.0008C19.7008 4.64362 15.3579 0.300781 10.0008 0.300781C4.64362 0.300781 0.300781 4.64362 0.300781 10.0008C0.300781 15.3579 4.64362 19.7008 10.0008 19.7008Z" fill="url(#paint0_linear_4074_6225)"/>
<path d="M14.2462 13.8662L10.9662 5.93617C10.7812 5.52617 10.5062 5.32617 10.1437 5.32617H9.85367C9.49117 5.32617 9.21617 5.52617 9.03117 5.93617L7.60367 9.39117H6.52367C6.20117 9.39367 5.93867 9.65367 5.93617 9.97867V9.98617C5.93867 10.3087 6.20117 10.5712 6.52367 10.5737H7.10367L5.74117 13.8662C5.71617 13.9387 5.70117 14.0137 5.70117 14.0912C5.70117 14.2762 5.75867 14.4212 5.86117 14.5337C5.96367 14.6462 6.11117 14.7012 6.29617 14.7012C6.41867 14.6987 6.53617 14.6612 6.63367 14.5887C6.73867 14.5162 6.81117 14.4112 6.86867 14.2912L8.36867 10.5712H9.40867C9.73117 10.5687 9.99367 10.3087 9.99617 9.98367V9.96867C9.99367 9.64617 9.73117 9.38367 9.40867 9.38117H8.85367L9.99867 6.52867L13.1187 14.2887C13.1762 14.4087 13.2487 14.5137 13.3537 14.5862C13.4512 14.6587 13.5712 14.6962 13.6912 14.6987C13.8762 14.6987 14.0212 14.6437 14.1262 14.5312C14.2312 14.4187 14.2862 14.2737 14.2862 14.0887C14.2887 14.0137 14.2762 13.9362 14.2462 13.8662Z" fill="white"/>
</g>
</g>
<defs>
<linearGradient id="paint0_linear_4074_6225" x1="17.233" y1="3.91544" x2="2.79936" y2="16.0598" gradientUnits="userSpaceOnUse">
<stop stop-color="#B6509E"/>
<stop offset="1" stop-color="#2EBAC6"/>
</linearGradient>
<clipPath id="clip0_4074_6225">
<rect width="20" height="20" fill="white"/>
</clipPath>
</defs>
</svg>
