<svg width="32" height="32" viewBox="0 0 32 32" fill="none" xmlns="http://www.w3.org/2000/svg">
<g clip-path="url(#clip0_5946_6585)">
<g clip-path="url(#clip1_5946_6585)">
<path d="M31.875 16C31.875 7.23248 24.7675 0.125 16 0.125C7.23248 0.125 0.125 7.23248 0.125 16C0.125 24.7675 7.23248 31.875 16 31.875C24.7675 31.875 31.875 24.7675 31.875 16Z" fill="#111827"/>
<path d="M23.4778 7.87905C23.4778 9.25898 20.1298 10.3777 16 10.3777C11.8701 10.3777 8.52222 9.25898 8.52222 7.87905C8.52222 6.49905 11.8701 5.38037 16 5.38037C20.1298 5.38037 23.4778 6.49905 23.4778 7.87905Z" fill="white"/>
<path d="M28.4629 21.4551C28.4629 19.7543 25.4119 18.2917 21.0389 17.645L20.9257 17.668C19.4508 17.959 17.7758 18.1235 16 18.1235C14.1785 18.1235 12.4631 17.9504 10.961 17.645C6.58806 18.2917 3.53699 19.7543 3.53699 21.4551C3.53699 23.755 9.11681 25.6195 16 25.6195C22.8831 25.6195 28.4629 23.755 28.4629 21.4551Z" fill="white"/>
<path d="M25.9703 13.9592C25.9703 12.4874 23.1148 11.2387 19.1542 10.7976L19.052 10.8141C18.1095 10.9624 17.0791 11.044 16 11.044C14.8815 11.044 13.8158 10.9564 12.8456 10.7977C8.88502 11.2387 6.02954 12.4875 6.02954 13.9592C6.02954 15.7991 10.4934 17.2907 16 17.2907C21.5065 17.2907 25.9703 15.7991 25.9703 13.9592Z" fill="white"/>
<path fill-rule="evenodd" clip-rule="evenodd" d="M16 0.25C7.30152 0.25 0.25 7.30152 0.25 16C0.25 24.6985 7.30152 31.75 16 31.75C24.6985 31.75 31.75 24.6985 31.75 16C31.75 7.30152 24.6985 0.25 16 0.25ZM0 16C0 7.16344 7.16344 0 16 0C24.8366 0 32 7.16344 32 16C32 24.8366 24.8366 32 16 32C7.16344 32 0 24.8366 0 16Z" fill="#E5E7EB"/>
</g>
</g>
<defs>
<clipPath id="clip0_5946_6585">
<rect width="32" height="32" fill="white"/>
</clipPath>
<clipPath id="clip1_5946_6585">
<rect width="32" height="32" fill="white"/>
</clipPath>
</defs>
</svg>
