<svg width="32" height="32" viewBox="0 0 32 32" fill="none" xmlns="http://www.w3.org/2000/svg">
<g clip-path="url(#clip0_7138_33106)">
<path d="M15.9999 3.13648C17.7373 3.13648 19.4217 3.47638 21.0065 4.14714C21.7678 4.46891 22.5035 4.86774 23.1909 5.33304C23.8722 5.7938 24.5127 6.32254 25.0959 6.90416C25.679 7.48729 26.2078 8.12783 26.667 8.80916C27.1308 9.49651 27.5312 10.2323 27.8529 10.9937C28.5236 12.5784 28.8636 14.2628 28.8636 16.0001C28.8636 17.7374 28.5236 19.4218 27.8529 21.0065C27.5312 21.7679 27.1323 22.5036 26.667 23.191C26.2062 23.8723 25.6775 24.5129 25.0959 25.096C24.5127 25.6791 23.8722 26.2079 23.1909 26.6671C22.5035 27.1324 21.7678 27.5313 21.0065 27.853C19.4217 28.5238 17.7373 28.8637 15.9999 28.8637C14.2627 28.8637 12.5782 28.5238 10.9935 27.853C10.2321 27.5313 9.4964 27.1324 8.80903 26.6671C8.12771 26.2063 7.48717 25.6777 6.90404 25.096C6.32091 24.5129 5.79217 23.8723 5.33292 23.191C4.86913 22.5036 4.46879 21.7679 4.14702 21.0065C3.47626 19.4218 3.13636 17.7374 3.13636 16.0001C3.13636 14.2628 3.47626 12.5784 4.14702 10.9937C4.46879 10.2323 4.86762 9.49651 5.33292 8.80916C5.79367 8.12783 6.32242 7.48729 6.90404 6.90416C7.48717 6.32104 8.12771 5.79229 8.80903 5.33304C9.4964 4.86774 10.2321 4.46891 10.9935 4.14714C12.5782 3.47638 14.2627 3.13648 15.9999 3.13648ZM15.9999 1.6001C8.04613 1.6001 1.59998 8.04625 1.59998 16.0001C1.59998 23.9539 8.04613 30.4001 15.9999 30.4001C23.9538 30.4001 30.4 23.9539 30.4 16.0001C30.4 8.04625 23.9523 1.6001 15.9999 1.6001Z" fill="white"/>
<path d="M11.6292 10.4815V9.41947C11.6292 8.56141 12.1912 7.86195 13.0372 7.7139C13.6762 7.6006 14.2684 7.71995 14.7382 8.20941C15.0464 8.52968 15.2065 8.91791 15.2126 9.3621C15.2186 9.7307 15.2126 10.1008 15.2126 10.4754H17.1553C17.1553 10.4528 17.1583 10.4287 17.1583 10.4029V9.39528C17.1613 8.44207 17.9152 7.68823 18.8685 7.67916C19.1978 7.67614 19.5165 7.70787 19.8096 7.86648C20.4109 8.1928 20.7251 8.70039 20.7417 9.38322C20.7508 9.7443 20.7433 10.1054 20.7433 10.4785H23.2676C23.739 10.4785 24.0517 10.7927 24.094 11.2625C24.1303 11.6644 24.0275 12.0315 23.8945 12.3986C23.7571 12.7792 23.5607 13.1358 23.3099 13.4531C23.112 13.7038 22.89 13.938 22.6618 14.1631C22.3657 14.4531 22.0545 14.7281 21.7448 15.0061C21.5757 15.1571 21.4246 15.3218 21.3279 15.5288C21.3007 15.5877 21.2765 15.6572 21.2765 15.7206C21.2735 17.2676 21.2795 18.8145 21.272 20.3615C21.2629 22.2211 19.8882 23.8784 18.0632 24.2319C17.7808 24.2847 17.4953 24.3135 17.2082 24.315C16.406 24.3255 15.6038 24.3195 14.8017 24.318C12.8438 24.318 11.2031 22.9825 10.8194 21.0655C10.7696 20.7996 10.7439 20.5307 10.7455 20.2603C10.7378 18.7526 10.7424 17.2449 10.7409 15.7388C10.7409 15.6919 10.7303 15.6451 10.7107 15.6028C10.5883 15.3188 10.3723 15.1103 10.1472 14.9063C9.84358 14.6314 9.5429 14.3534 9.2453 14.0725C8.89785 13.7447 8.58815 13.385 8.36155 12.9621C8.10775 12.4877 7.89172 11.9953 7.89172 11.4408C7.89172 11.3154 7.90531 11.1915 7.93251 11.0692C8.01711 10.7172 8.32982 10.48 8.6939 10.4785H11.6262L11.6292 10.4815ZM14.4194 12.1886H11.3316C11.1337 12.1886 10.963 12.3215 10.9373 12.5164C10.9207 12.6282 10.9222 12.743 10.9418 12.8548C11.0098 13.2008 11.1609 13.5135 11.4011 13.7703C11.6413 14.0271 11.9042 14.2552 12.1474 14.5045C12.3317 14.6919 12.4495 14.9154 12.4495 15.1919C12.448 16.8808 12.448 18.5698 12.4495 20.2587C12.4495 20.3781 12.4556 20.4975 12.4721 20.6153C12.6429 21.7755 13.6157 22.6124 14.7881 22.6124H17.2037C17.323 22.6124 17.4424 22.6064 17.5617 22.5913C18.7114 22.4327 19.5679 21.4522 19.5694 20.292C19.5694 20.011 19.5664 19.7285 19.5709 19.4475C19.5709 19.3826 19.5528 19.3554 19.4894 19.3357C18.8956 19.1545 18.3277 18.8961 17.8004 18.5683C16.5888 17.816 15.6597 16.8068 15.0585 15.5061C14.7699 14.8822 14.572 14.2311 14.5025 13.5467C14.4572 13.098 14.4481 12.6464 14.421 12.1856L14.4194 12.1886ZM19.4501 16.7177C19.4546 16.2947 19.1162 15.9488 18.6948 15.9427C18.2717 15.9382 17.9258 16.2766 17.9198 16.6996C17.9152 17.1226 18.2536 17.4685 18.6751 17.4746H18.6766C19.0981 17.4806 19.444 17.1437 19.4486 16.7222V16.7177H19.4501Z" fill="white"/>
<path d="M14.8341 16.7997C14.8325 17.2397 14.4744 17.5948 14.036 17.5932C13.5961 17.5916 13.241 17.2334 13.2426 16.7935C13.2442 16.3536 13.6023 15.9985 14.0423 16H14.0454C14.4838 16 14.8373 16.3583 14.8357 16.795V16.7982L14.8341 16.7997Z" fill="white"/>
</g>
<defs>
<clipPath id="clip0_7138_33106">
<rect width="32" height="32" fill="white"/>
</clipPath>
</defs>
</svg>
