<svg width="32" height="32" viewBox="0 0 32 32" fill="none" xmlns="http://www.w3.org/2000/svg">
<path d="M9.78762 13.446L16.0026 7.23357L22.2202 13.4511L25.8344 9.83431L16.0026 0L6.17084 9.83179L9.78762 13.446Z" fill="#F3BA2F"/>
<path d="M0 16.0005L3.61546 12.385L7.23092 16.0005L3.61546 19.6159L0 16.0005Z" fill="#F3BA2F"/>
<path d="M9.78755 18.554L16.0026 24.769L22.2201 18.5515L25.8369 22.1632L25.8343 22.1658L16.0026 32.0001L6.17077 22.1708L6.16571 22.1658L9.78755 18.554Z" fill="#F3BA2F"/>
<path d="M24.7681 16.0015L28.3835 12.386L31.999 16.0015L28.3835 19.6169L24.7681 16.0015Z" fill="#F3BA2F"/>
<path d="M19.6699 15.9987L16.0025 12.3289L13.2906 15.0408L12.9772 15.3517L12.3352 15.9937L12.3301 15.9987L12.3352 16.0063L16.0025 19.6711L19.6699 16.0012L19.6724 15.9987H19.6699Z" fill="#F3BA2F"/>
</svg>
