<svg width="32" height="32" viewBox="0 0 32 32" fill="none" xmlns="http://www.w3.org/2000/svg">
<rect width="31.999" height="32" rx="15.9995" fill="black"/>
<g clip-path="url(#clip0_10205_7930)">
<path d="M21.9539 17.9385V11H23.3998V17.9385H21.9539Z" fill="#F7A600"/>
<path d="M5.10612 19.999H2.00708V13.0615H4.9818C6.4266 13.0615 7.26996 13.8221 7.26996 15.0106C7.26996 15.781 6.729 16.2769 6.3538 16.4433C6.80068 16.6378 7.373 17.0764 7.373 18.0023C7.373 19.2967 6.4266 19.999 5.10612 19.999ZM4.86756 14.2705H3.45188V15.8685H4.86756C5.48132 15.8685 5.82516 15.5465 5.82516 15.069C5.82516 14.5914 5.48132 14.2705 4.86756 14.2705ZM4.96052 17.0861H3.45188V18.7911H4.9594C5.61572 18.7911 5.92708 18.401 5.92708 17.9332C5.92708 17.4654 5.6146 17.0861 4.96052 17.0861Z" fill="white"/>
<path d="M11.782 17.1531V19.999H10.3462V17.1531L8.12073 13.0615H9.69209L11.0742 15.8577L12.4372 13.0615H14.0074L11.782 17.1531Z" fill="white"/>
<path d="M18.1056 19.999H15.0066V13.0615H17.9813C19.4261 13.0615 20.2695 13.8221 20.2695 15.0106C20.2695 15.781 19.7285 16.2769 19.3533 16.4433C19.8002 16.6378 20.3725 17.0764 20.3725 18.0023C20.3725 19.2967 19.4272 19.999 18.1056 19.999ZM17.8671 14.2705H16.4525V15.8685H17.8671C18.4808 15.8685 18.8247 15.5465 18.8247 15.069C18.8236 14.5914 18.4797 14.2705 17.8671 14.2705ZM17.96 17.0861H16.4525V18.7911H17.96C18.6164 18.7911 18.9277 18.401 18.9277 17.9332C18.9277 17.4654 18.6152 17.0861 17.96 17.0861Z" fill="white"/>
<path d="M28.059 14.2705V20.0001H26.6131V14.2705H24.6788V13.0615H29.9932V14.2705H28.059Z" fill="white"/>
</g>
<defs>
<clipPath id="clip0_10205_7930">
<rect width="28" height="9" fill="white" transform="translate(2 11)"/>
</clipPath>
</defs>
</svg>
