<svg width="20" height="20" viewBox="0 0 20 20" fill="none" xmlns="http://www.w3.org/2000/svg">
<path fill-rule="evenodd" clip-rule="evenodd" d="M7.82677 15.75C6.95241 15.75 6.17877 15.2091 5.91446 14.4128L4.55537 10.3194H3.71986C2.84552 10.3194 2.07188 9.7785 1.80754 8.98225L1 6.55H4.02898L2.43137 4.25H17.5686L15.9711 6.55H19L18.1925 8.98225C17.9282 9.7785 17.1545 10.3194 16.2802 10.3194H15.4446L14.0856 14.4128C13.8213 15.2091 13.0476 15.75 12.1733 15.75H7.82677ZM6.80001 9.20138C6.80001 9.81887 7.28258 10.3194 7.87779 10.3194C8.47306 10.3194 8.95563 9.81887 8.95563 9.20138C8.95563 8.58388 8.47306 8.08331 7.87779 8.08331C7.28258 8.08331 6.80001 8.58388 6.80001 9.20138ZM13.2 9.20138C13.2 9.81887 12.7175 10.3194 12.1222 10.3194C11.527 10.3194 11.0444 9.81887 11.0444 9.20138C11.0444 8.58388 11.527 8.08331 12.1222 8.08331C12.7175 8.08331 13.2 8.58388 13.2 9.20138Z" fill="#65D9FF"/>
</svg>
