<svg width="32" height="32" viewBox="0 0 32 32" fill="none" xmlns="http://www.w3.org/2000/svg">
<g clip-path="url(#clip0_4957_9924)">
<path fill-rule="evenodd" clip-rule="evenodd" d="M27.7334 24H32C32 23.8215 31.9971 23.6437 31.9913 23.4667H28.6626L31.9565 22.8114C31.9289 22.4351 31.8882 22.0623 31.835 21.6937L28.7125 22.3149L31.7313 21.0644C31.6585 20.6718 31.5714 20.2843 31.4705 19.9024L28.5162 21.1261L31.2901 19.2726C31.1651 18.8676 31.0244 18.4695 30.8687 18.0789L28.0616 19.9546L30.591 17.4251C30.4056 17.0142 30.2032 16.6125 29.985 16.221L27.3499 18.856L29.5746 15.5266C29.3205 15.1203 29.0486 14.7263 28.7602 14.3456L26.3934 17.8876L28.1661 13.6079C27.8364 13.2223 27.4887 12.8525 27.1241 12.4999L25.3159 16.8656C26.8322 18.8425 27.7334 21.316 27.7334 24ZM4.26666 24C4.26666 23.6768 4.27973 23.3567 4.30537 23.04H0.028321C0.00952914 23.3576 0 23.6778 0 24H4.26666ZM4.58668 21.2669L0.398882 20.4339C0.538628 19.8199 0.713682 19.2194 0.921794 18.6346L5.16913 19.4795C4.92924 20.0536 4.73367 20.6508 4.58668 21.2669ZM5.98306 17.8868L2.00499 16.239C2.304 15.701 2.63313 15.182 2.99011 14.6843L7.07913 16.378C6.67548 16.85 6.30865 17.3544 5.98306 17.8868ZM8.28997 15.1552L4.64978 12.7229C5.07658 12.2934 5.5276 11.8879 6.00061 11.5088L9.79165 14.0419C9.26121 14.3733 8.75915 14.7459 8.28997 15.1552ZM11.1962 13.2919L8.02838 10.1241C8.54612 9.82606 9.0821 9.55612 9.63426 9.31642L12.9775 12.6596C12.3624 12.8232 11.7672 13.0354 11.1962 13.2919ZM14.3535 12.3813L11.7984 8.55736C12.367 8.40303 12.9482 8.27927 13.54 8.18794L16.2673 12.2696C16.1784 12.2677 16.0893 12.2667 16 12.2667C15.4412 12.2667 14.8915 12.3057 14.3535 12.3813ZM17.4204 12.3518L15.6196 8.00443C15.7461 8.00148 15.8728 8 16 8C16.4628 8 16.9209 8.01965 17.3738 8.05815L19.3135 12.7411C18.7017 12.5613 18.0692 12.4301 17.4204 12.3518ZM20.1381 13.0172L19.2039 8.32084C19.7696 8.43583 20.3246 8.58068 20.8669 8.75367L21.8795 13.8438C21.326 13.5227 20.744 13.2456 20.1381 13.0172ZM22.3645 14.1411V9.31587C22.8768 9.5382 23.3751 9.78655 23.8577 10.0592V15.2863C23.3923 14.8663 22.893 14.483 22.3645 14.1411ZM24.071 15.4835L25.0077 10.7746C25.4494 11.076 25.8751 11.3989 26.2835 11.7419L25.275 16.8125C24.9077 16.3393 24.5052 15.895 24.071 15.4835Z" fill="#FBFF3A"/>
<path fill-rule="evenodd" clip-rule="evenodd" d="M23.4666 23.9999H27.7333C27.7333 23.7957 27.728 23.5927 27.7177 23.3911L25.5953 23.354L27.6892 22.9754C27.6452 22.4673 27.5689 21.9684 27.4622 21.4808L25.0582 21.9155L27.3496 21.0129C27.2251 20.5384 27.0717 20.0757 26.8911 19.6267L24.2688 20.6597L26.6709 19.1145C26.4743 18.6856 26.2525 18.2706 26.0074 17.8714L23.2793 19.6263L25.6554 17.3316C25.3972 16.9584 25.118 16.6009 24.8192 16.2608L22.1441 18.8443L24.3123 15.7188C24.0044 15.4099 23.6795 15.118 23.3391 14.8448L20.9219 18.3292L22.6578 14.3371C22.3136 14.0995 21.9561 13.8799 21.5867 13.6795L19.8749 17.6162C22.0284 18.9262 23.4666 21.2951 23.4666 23.9999ZM8.53326 23.9999H4.2666C4.2666 23.8017 4.27152 23.6045 4.28125 23.4086L8.55087 23.4832C8.5392 23.6539 8.53326 23.8263 8.53326 23.9999ZM20.7202 13.2547C20.3542 13.0937 19.9784 12.9509 19.5942 12.8273L18.6818 17.0294C19.0658 17.1772 19.4346 17.3559 19.7849 17.5623L20.7202 13.2547ZM18.5467 12.5437C18.1748 12.4615 17.7963 12.3968 17.4121 12.3507L17.337 16.6526C17.7259 16.7229 18.1043 16.8234 18.4697 16.9514L18.5467 12.5437ZM16 12.2666C15.7009 12.2666 15.4044 12.2778 15.1109 12.2998L15.8767 16.5343C15.9176 16.5336 15.9587 16.5333 16 16.5333C16.3357 16.5333 16.6662 16.5554 16.9903 16.5984L16.2073 12.2684C16.1383 12.2672 16.0691 12.2666 16 12.2666ZM13.7735 16.8709L11.411 13.1979C11.1075 13.327 10.8107 13.4685 10.521 13.6217L12.8429 17.2316C13.1428 17.0915 13.4535 16.9707 13.7735 16.8709ZM12.2077 17.5666L9.19128 14.443C8.93863 14.6233 8.69346 14.8134 8.45627 15.0127L11.4314 18.0936C11.6783 17.9023 11.9376 17.7262 12.2077 17.5666ZM7.25883 16.1726C7.06438 16.3896 6.87789 16.6139 6.69982 16.845L10.2125 19.2819C10.3981 19.0545 10.5968 18.8383 10.8074 18.6344L7.25883 16.1726ZM5.73243 18.3166C5.60022 18.555 5.47606 18.7984 5.36033 19.0466L9.27614 20.7492C9.39598 20.5018 9.52908 20.262 9.67452 20.0307L5.73243 18.3166ZM4.71597 20.7729C4.64627 21.017 4.58428 21.2644 4.5303 21.5148L8.70068 22.4203C8.7548 22.169 8.82156 21.9224 8.90026 21.6814L4.71597 20.7729ZM15.4001 16.557C15.0437 16.5853 14.6945 16.6387 14.3541 16.7153L12.7782 12.7145C13.1102 12.6198 13.4483 12.5395 13.7917 12.4741L15.4001 16.557Z" fill="#FBFF3A"/>
<path fill-rule="evenodd" clip-rule="evenodd" d="M22.8711 24.0001L23.4666 23.9794C23.4664 23.8601 23.4632 23.7416 23.4574 23.6239L19.8379 23.7502L19.7746 23.7399L23.3848 22.8898C23.3645 22.7542 23.3406 22.6198 23.3132 22.4866L19.8847 23.2939L23.1404 21.8102C23.0949 21.6617 23.0449 21.5151 22.9906 21.3706L19.9415 22.76L22.7266 20.7551C22.6509 20.5985 22.57 20.4449 22.4839 20.2946L19.8621 22.1819L22.1356 19.7439C22.0257 19.5856 21.9095 19.4317 21.788 19.2827L19.6327 21.5939L21.3602 18.8021C21.2128 18.6501 21.0588 18.5042 20.899 18.3651L19.2473 21.0341L20.3953 17.9636C20.2089 17.8276 20.016 17.7 19.817 17.5815L18.7102 20.5415L19.2427 17.2724C19.0184 17.1641 18.7878 17.0667 18.5516 16.9808L18.0348 20.1546L17.9171 16.7818C17.6594 16.7136 17.3963 16.6588 17.1286 16.6182L17.2436 19.9084L16.4519 16.5469C16.3024 16.538 16.1518 16.5334 16 16.5334C15.8635 16.5334 15.7277 16.5371 15.593 16.5444L16.3675 19.834L14.9002 16.6139C14.5966 16.6587 14.2993 16.7217 14.0089 16.8019L15.4453 19.9537L13.3354 17.0229C13.0346 17.1379 12.7431 17.2717 12.4624 17.423L14.521 20.2826L11.8502 17.7919C11.57 17.9796 11.3032 18.1857 11.0516 18.4085L13.642 20.8241L10.5415 18.9054C10.301 19.163 10.0785 19.4375 9.87607 19.7271L12.8576 21.5721L9.50292 20.3179C9.32156 20.6372 9.16307 20.9712 9.02965 21.3177L12.2157 22.5089L8.81677 21.9553C8.71247 22.3225 8.63554 22.701 8.58837 23.0889L11.7599 23.6054L8.53857 23.7179C8.53509 23.8116 8.53333 23.9056 8.53333 24.0001H12.8C12.8 22.2327 14.2326 20.8001 16 20.8001C17.7673 20.8001 19.2 22.2327 19.2 24.0001H22.8711Z" fill="#FBFF3A"/>
</g>
<defs>
<clipPath id="clip0_4957_9924">
<rect width="32" height="16" fill="white" transform="translate(0 8)"/>
</clipPath>
</defs>
</svg>
