<svg width="32" height="32" viewBox="0 0 32 32" fill="none" xmlns="http://www.w3.org/2000/svg">
<g clip-path="url(#clip0_6202_6905)">
<path d="M25.6859 25.6681C25.6859 26.6797 25.3074 27.5667 24.7 28.247C24.6928 28.255 24.6879 28.2648 24.6857 28.2754C24.6835 28.2854 24.684 28.2957 24.6869 28.3054C24.6899 28.3152 24.6953 28.324 24.7026 28.3312C24.7099 28.3383 24.7189 28.3434 24.7288 28.3461C24.7387 28.3487 24.7491 28.3489 24.759 28.3465C26.511 27.9169 27.9277 26.4262 27.9277 24.4688V14.3219C27.9277 11.3224 26.2454 8.55104 23.5146 7.051L12.4882 0.995605L10.3042 2.22626L21.2728 8.25032C24.0037 9.75036 25.6859 12.5221 25.6859 15.5212V25.6681Z" fill="url(#paint0_linear_6202_6905)"/>
<path d="M25.6859 25.6681C25.6859 26.6797 25.3074 27.5667 24.7 28.247C24.6928 28.255 24.6879 28.2648 24.6857 28.2754C24.6835 28.2854 24.684 28.2957 24.6869 28.3054C24.6899 28.3152 24.6953 28.324 24.7026 28.3312C24.7099 28.3383 24.7189 28.3434 24.7288 28.3461C24.7387 28.3487 24.7491 28.3489 24.759 28.3465C26.511 27.9169 27.9277 26.4262 27.9277 24.4688V14.3219C27.9277 11.3224 26.2454 8.55104 23.5146 7.051L12.4882 0.995605L10.3042 2.22626L21.2728 8.25032C24.0037 9.75036 25.6859 12.5221 25.6859 15.5212V25.6681Z" fill="url(#paint1_linear_6202_6905)"/>
<path d="M25.6859 25.6681C25.6859 26.6797 25.3074 27.5667 24.7 28.247C24.6928 28.255 24.6879 28.2648 24.6857 28.2754C24.6835 28.2854 24.684 28.2957 24.6869 28.3054C24.6899 28.3152 24.6953 28.324 24.7026 28.3312C24.7099 28.3383 24.7189 28.3434 24.7288 28.3461C24.7387 28.3487 24.7491 28.3489 24.759 28.3465C26.511 27.9169 27.9277 26.4262 27.9277 24.4688V14.3219C27.9277 11.3224 26.2454 8.55104 23.5146 7.051L12.4882 0.995605L10.3042 2.22626L21.2728 8.25032C24.0037 9.75036 25.6859 12.5221 25.6859 15.5212V25.6681Z" fill="url(#paint2_radial_6202_6905)" fill-opacity="0.2"/>
<path d="M25.6859 25.6681C25.6859 26.6797 25.3074 27.5667 24.7 28.247C24.6928 28.255 24.6879 28.2648 24.6857 28.2754C24.6835 28.2854 24.684 28.2957 24.6869 28.3054C24.6899 28.3152 24.6953 28.324 24.7026 28.3312C24.7099 28.3383 24.7189 28.3434 24.7288 28.3461C24.7387 28.3487 24.7491 28.3489 24.759 28.3465C26.511 27.9169 27.9277 26.4262 27.9277 24.4688V14.3219C27.9277 11.3224 26.2454 8.55104 23.5146 7.051L12.4882 0.995605L10.3042 2.22626L21.2728 8.25032C24.0037 9.75036 25.6859 12.5221 25.6859 15.5212V25.6681Z" fill="url(#paint3_radial_6202_6905)" fill-opacity="0.1"/>
<path d="M25.6859 25.6681C25.6859 26.6797 25.3074 27.5667 24.7 28.247C24.6928 28.255 24.6879 28.2648 24.6857 28.2754C24.6835 28.2854 24.684 28.2957 24.6869 28.3054C24.6899 28.3152 24.6953 28.324 24.7026 28.3312C24.7099 28.3383 24.7189 28.3434 24.7288 28.3461C24.7387 28.3487 24.7491 28.3489 24.759 28.3465C26.511 27.9169 27.9277 26.4262 27.9277 24.4688V14.3219C27.9277 11.3224 26.2454 8.55104 23.5146 7.051L12.4882 0.995605L10.3042 2.22626L21.2728 8.25032C24.0037 9.75036 25.6859 12.5221 25.6859 15.5212V25.6681Z" fill="url(#paint4_linear_6202_6905)" fill-opacity="0.2"/>
<path d="M22.6039 27.4008V17.2538C22.6039 14.2544 20.9216 11.4827 18.1911 9.98298L7.22217 3.95892L9.40649 2.72827L20.4325 8.78334C23.1634 10.2831 24.8453 13.0548 24.8453 16.0542V26.2011C24.8453 28.1585 23.429 29.6489 21.6767 30.0788C21.6667 30.0812 21.6564 30.081 21.6466 30.0783C21.6367 30.0756 21.6278 30.0704 21.6205 30.0633C21.6132 30.0562 21.6078 30.0474 21.6049 30.0377C21.602 30.028 21.6015 30.0177 21.6037 30.0077C21.6059 29.9972 21.6108 29.9874 21.618 29.9793C22.2561 29.2711 22.6075 28.3524 22.6039 27.4008Z" fill="url(#paint5_linear_6202_6905)"/>
<path d="M22.6039 27.4008V17.2538C22.6039 14.2544 20.9216 11.4827 18.1911 9.98298L7.22217 3.95892L9.40649 2.72827L20.4325 8.78334C23.1634 10.2831 24.8453 13.0548 24.8453 16.0542V26.2011C24.8453 28.1585 23.429 29.6489 21.6767 30.0788C21.6667 30.0812 21.6564 30.081 21.6466 30.0783C21.6367 30.0756 21.6278 30.0704 21.6205 30.0633C21.6132 30.0562 21.6078 30.0474 21.6049 30.0377C21.602 30.028 21.6015 30.0177 21.6037 30.0077C21.6059 29.9972 21.6108 29.9874 21.618 29.9793C22.2561 29.2711 22.6075 28.3524 22.6039 27.4008Z" fill="url(#paint6_linear_6202_6905)"/>
<path d="M22.6039 27.4008V17.2538C22.6039 14.2544 20.9216 11.4827 18.1911 9.98298L7.22217 3.95892L9.40649 2.72827L20.4325 8.78334C23.1634 10.2831 24.8453 13.0548 24.8453 16.0542V26.2011C24.8453 28.1585 23.429 29.6489 21.6767 30.0788C21.6667 30.0812 21.6564 30.081 21.6466 30.0783C21.6367 30.0756 21.6278 30.0704 21.6205 30.0633C21.6132 30.0562 21.6078 30.0474 21.6049 30.0377C21.602 30.028 21.6015 30.0177 21.6037 30.0077C21.6059 29.9972 21.6108 29.9874 21.618 29.9793C22.2561 29.2711 22.6075 28.3524 22.6039 27.4008Z" fill="url(#paint7_radial_6202_6905)" fill-opacity="0.2"/>
<path d="M22.6039 27.4008V17.2538C22.6039 14.2544 20.9216 11.4827 18.1911 9.98298L7.22217 3.95892L9.40649 2.72827L20.4325 8.78334C23.1634 10.2831 24.8453 13.0548 24.8453 16.0542V26.2011C24.8453 28.1585 23.429 29.6489 21.6767 30.0788C21.6667 30.0812 21.6564 30.081 21.6466 30.0783C21.6367 30.0756 21.6278 30.0704 21.6205 30.0633C21.6132 30.0562 21.6078 30.0474 21.6049 30.0377C21.602 30.028 21.6015 30.0177 21.6037 30.0077C21.6059 29.9972 21.6108 29.9874 21.618 29.9793C22.2561 29.2711 22.6075 28.3524 22.6039 27.4008Z" fill="url(#paint8_radial_6202_6905)" fill-opacity="0.1"/>
<path d="M22.6039 27.4008V17.2538C22.6039 14.2544 20.9216 11.4827 18.1911 9.98298L7.22217 3.95892L9.40649 2.72827L20.4325 8.78334C23.1634 10.2831 24.8453 13.0548 24.8453 16.0542V26.2011C24.8453 28.1585 23.429 29.6489 21.6767 30.0788C21.6667 30.0812 21.6564 30.081 21.6466 30.0783C21.6367 30.0756 21.6278 30.0704 21.6205 30.0633C21.6132 30.0562 21.6078 30.0474 21.6049 30.0377C21.602 30.028 21.6015 30.0177 21.6037 30.0077C21.6059 29.9972 21.6108 29.9874 21.618 29.9793C22.2561 29.2711 22.6075 28.3524 22.6039 27.4008Z" fill="url(#paint9_linear_6202_6905)" fill-opacity="0.2"/>
<path fill-rule="evenodd" clip-rule="evenodd" d="M4 5.7739L6.21254 4.5271L17.2389 10.5828C19.9697 12.0825 21.6517 14.8542 21.6517 17.8537V28.0503C21.6137 31.0985 18.1344 32.993 15.3475 31.4626L5.35438 25.9744L4 25.2495V5.7739ZM19.4103 19.0847V24.9753L11.9849 20.8974V10.1597L14.9969 11.8138C17.7277 13.3135 19.4103 16.0852 19.4103 19.0847ZM9.18335 8.62088L10.3042 9.2362V21.8202L10.4219 21.8829L19.4103 26.8194V27.9589L9.19795 22.3502L9.18335 22.3583V8.62088ZM7.36227 7.62053V23.3264L7.41481 23.3551L7.36227 23.3848L19.3963 29.9939C19.2958 30.521 18.6637 30.8217 18.1493 30.5394L6.24141 23.9995V7.0052L7.36227 7.62053Z" fill="url(#paint10_linear_6202_6905)"/>
<path fill-rule="evenodd" clip-rule="evenodd" d="M4 5.7739L6.21254 4.5271L17.2389 10.5828C19.9697 12.0825 21.6517 14.8542 21.6517 17.8537V28.0503C21.6137 31.0985 18.1344 32.993 15.3475 31.4626L5.35438 25.9744L4 25.2495V5.7739ZM19.4103 19.0847V24.9753L11.9849 20.8974V10.1597L14.9969 11.8138C17.7277 13.3135 19.4103 16.0852 19.4103 19.0847ZM9.18335 8.62088L10.3042 9.2362V21.8202L10.4219 21.8829L19.4103 26.8194V27.9589L9.19795 22.3502L9.18335 22.3583V8.62088ZM7.36227 7.62053V23.3264L7.41481 23.3551L7.36227 23.3848L19.3963 29.9939C19.2958 30.521 18.6637 30.8217 18.1493 30.5394L6.24141 23.9995V7.0052L7.36227 7.62053Z" fill="url(#paint11_linear_6202_6905)"/>
<path fill-rule="evenodd" clip-rule="evenodd" d="M4 5.7739L6.21254 4.5271L17.2389 10.5828C19.9697 12.0825 21.6517 14.8542 21.6517 17.8537V28.0503C21.6137 31.0985 18.1344 32.993 15.3475 31.4626L5.35438 25.9744L4 25.2495V5.7739ZM19.4103 19.0847V24.9753L11.9849 20.8974V10.1597L14.9969 11.8138C17.7277 13.3135 19.4103 16.0852 19.4103 19.0847ZM9.18335 8.62088L10.3042 9.2362V21.8202L10.4219 21.8829L19.4103 26.8194V27.9589L9.19795 22.3502L9.18335 22.3583V8.62088ZM7.36227 7.62053V23.3264L7.41481 23.3551L7.36227 23.3848L19.3963 29.9939C19.2958 30.521 18.6637 30.8217 18.1493 30.5394L6.24141 23.9995V7.0052L7.36227 7.62053Z" fill="url(#paint12_radial_6202_6905)" fill-opacity="0.2"/>
<path fill-rule="evenodd" clip-rule="evenodd" d="M4 5.7739L6.21254 4.5271L17.2389 10.5828C19.9697 12.0825 21.6517 14.8542 21.6517 17.8537V28.0503C21.6137 31.0985 18.1344 32.993 15.3475 31.4626L5.35438 25.9744L4 25.2495V5.7739ZM19.4103 19.0847V24.9753L11.9849 20.8974V10.1597L14.9969 11.8138C17.7277 13.3135 19.4103 16.0852 19.4103 19.0847ZM9.18335 8.62088L10.3042 9.2362V21.8202L10.4219 21.8829L19.4103 26.8194V27.9589L9.19795 22.3502L9.18335 22.3583V8.62088ZM7.36227 7.62053V23.3264L7.41481 23.3551L7.36227 23.3848L19.3963 29.9939C19.2958 30.521 18.6637 30.8217 18.1493 30.5394L6.24141 23.9995V7.0052L7.36227 7.62053Z" fill="url(#paint13_radial_6202_6905)" fill-opacity="0.1"/>
<path fill-rule="evenodd" clip-rule="evenodd" d="M4 5.7739L6.21254 4.5271L17.2389 10.5828C19.9697 12.0825 21.6517 14.8542 21.6517 17.8537V28.0503C21.6137 31.0985 18.1344 32.993 15.3475 31.4626L5.35438 25.9744L4 25.2495V5.7739ZM19.4103 19.0847V24.9753L11.9849 20.8974V10.1597L14.9969 11.8138C17.7277 13.3135 19.4103 16.0852 19.4103 19.0847ZM9.18335 8.62088L10.3042 9.2362V21.8202L10.4219 21.8829L19.4103 26.8194V27.9589L9.19795 22.3502L9.18335 22.3583V8.62088ZM7.36227 7.62053V23.3264L7.41481 23.3551L7.36227 23.3848L19.3963 29.9939C19.2958 30.521 18.6637 30.8217 18.1493 30.5394L6.24141 23.9995V7.0052L7.36227 7.62053Z" fill="url(#paint14_linear_6202_6905)" fill-opacity="0.2"/>
</g>
<defs>
<linearGradient id="paint0_linear_6202_6905" x1="3.60171" y1="16.4999" x2="27.6589" y2="14.3403" gradientUnits="userSpaceOnUse">
<stop stop-color="#FF3873"/>
<stop offset="0.474" stop-color="#711EFF"/>
<stop offset="1" stop-color="#3FE5FF"/>
</linearGradient>
<linearGradient id="paint1_linear_6202_6905" x1="5.48312" y1="2.42265" x2="22.2228" y2="16.7016" gradientUnits="userSpaceOnUse">
<stop stop-color="#F6F063"/>
<stop offset="1" stop-color="#E07774" stop-opacity="0"/>
</linearGradient>
<radialGradient id="paint2_radial_6202_6905" cx="0" cy="0" r="1" gradientUnits="userSpaceOnUse" gradientTransform="translate(4.63081 11.8961) rotate(65.496) scale(6.95113 5.98107)">
<stop offset="0.926" stop-color="white"/>
<stop offset="1" stop-color="white" stop-opacity="0"/>
</radialGradient>
<radialGradient id="paint3_radial_6202_6905" cx="0" cy="0" r="1" gradientUnits="userSpaceOnUse" gradientTransform="translate(8.10593 9.02036) rotate(58.8993) scale(4.41368 6.03957)">
<stop offset="0.086" stop-color="white"/>
<stop offset="0.941" stop-color="white" stop-opacity="0"/>
</radialGradient>
<linearGradient id="paint4_linear_6202_6905" x1="6.73923" y1="9.60824" x2="19.1937" y2="14.023" gradientUnits="userSpaceOnUse">
<stop stop-color="white"/>
<stop offset="1" stop-opacity="0"/>
</linearGradient>
<linearGradient id="paint5_linear_6202_6905" x1="3.60174" y1="16.5" x2="27.6589" y2="14.3404" gradientUnits="userSpaceOnUse">
<stop stop-color="#FF3873"/>
<stop offset="0.474" stop-color="#711EFF"/>
<stop offset="1" stop-color="#3FE5FF"/>
</linearGradient>
<linearGradient id="paint6_linear_6202_6905" x1="5.48314" y1="2.42271" x2="22.2228" y2="16.7016" gradientUnits="userSpaceOnUse">
<stop stop-color="#F6F063"/>
<stop offset="1" stop-color="#E07774" stop-opacity="0"/>
</linearGradient>
<radialGradient id="paint7_radial_6202_6905" cx="0" cy="0" r="1" gradientUnits="userSpaceOnUse" gradientTransform="translate(4.63083 11.8961) rotate(65.496) scale(6.95113 5.98107)">
<stop offset="0.926" stop-color="white"/>
<stop offset="1" stop-color="white" stop-opacity="0"/>
</radialGradient>
<radialGradient id="paint8_radial_6202_6905" cx="0" cy="0" r="1" gradientUnits="userSpaceOnUse" gradientTransform="translate(8.10595 9.02043) rotate(58.8993) scale(4.41368 6.03957)">
<stop offset="0.086" stop-color="white"/>
<stop offset="0.941" stop-color="white" stop-opacity="0"/>
</radialGradient>
<linearGradient id="paint9_linear_6202_6905" x1="6.73925" y1="9.6083" x2="19.1937" y2="14.023" gradientUnits="userSpaceOnUse">
<stop stop-color="white"/>
<stop offset="1" stop-opacity="0"/>
</linearGradient>
<linearGradient id="paint10_linear_6202_6905" x1="3.60173" y1="16.5" x2="27.6589" y2="14.3404" gradientUnits="userSpaceOnUse">
<stop stop-color="#FF3873"/>
<stop offset="0.474" stop-color="#711EFF"/>
<stop offset="1" stop-color="#3FE5FF"/>
</linearGradient>
<linearGradient id="paint11_linear_6202_6905" x1="5.48314" y1="2.42272" x2="22.2228" y2="16.7016" gradientUnits="userSpaceOnUse">
<stop stop-color="#F6F063"/>
<stop offset="1" stop-color="#E07774" stop-opacity="0"/>
</linearGradient>
<radialGradient id="paint12_radial_6202_6905" cx="0" cy="0" r="1" gradientUnits="userSpaceOnUse" gradientTransform="translate(4.63083 11.8961) rotate(65.496) scale(6.95113 5.98106)">
<stop offset="0.926" stop-color="white"/>
<stop offset="1" stop-color="white" stop-opacity="0"/>
</radialGradient>
<radialGradient id="paint13_radial_6202_6905" cx="0" cy="0" r="1" gradientUnits="userSpaceOnUse" gradientTransform="translate(8.10595 9.02043) rotate(58.8993) scale(4.41368 6.03957)">
<stop offset="0.086" stop-color="white"/>
<stop offset="0.941" stop-color="white" stop-opacity="0"/>
</radialGradient>
<linearGradient id="paint14_linear_6202_6905" x1="6.73924" y1="9.60831" x2="19.1937" y2="14.023" gradientUnits="userSpaceOnUse">
<stop stop-color="white"/>
<stop offset="1" stop-opacity="0"/>
</linearGradient>
<clipPath id="clip0_6202_6905">
<rect width="32" height="32" fill="white"/>
</clipPath>
</defs>
</svg>
