<svg width="20" height="20" viewBox="0 0 20 20" fill="none" xmlns="http://www.w3.org/2000/svg">
<g clip-path="url(#clip0_5181_10152)">
<path d="M19.9481 11.258C19.9999 10.978 19.9854 10.6399 19.919 10.3142C19.8547 9.99055 19.7344 9.67108 19.5664 9.43874C19.471 9.3039 19.3589 9.22299 19.2324 9.21054C19.11 9.20017 19 9.25411 18.9129 9.32049C18.8237 9.38688 18.7428 9.47608 18.6702 9.55906C18.6515 9.5798 18.6329 9.60055 18.6163 9.62129C18.5665 9.68145 18.5208 9.73124 18.4794 9.77273C17.6413 10.5859 16.5107 10.5361 15.351 10.1461C14.3843 9.82044 13.4259 9.26863 12.648 8.81847C12.509 8.73756 12.3763 8.66081 12.2497 8.59028C12.2248 8.499 12.1667 8.4015 12.1024 8.30815C12.0215 8.19198 11.9157 8.06751 11.8037 7.94926C11.5817 7.7107 11.3307 7.48458 11.1917 7.37671C10.4511 6.80623 9.30811 6.81453 8.58412 7.4099L2.77974 1.19478C2.70921 1.1201 2.63453 1.03712 2.5557 0.945842C2.52458 0.91265 2.49346 0.877384 2.46234 0.842118C2.34825 0.711426 2.22171 0.574511 2.08894 0.452117C1.82341 0.209404 1.50186 -0.000117874 1.13468 0.0227013H1.13053C0.686595 0.0704142 0.325637 0.327649 0.145157 0.665788C-0.0373964 1.00808 -0.0332474 1.42919 0.25303 1.78393C0.528935 2.12622 0.869149 2.46851 1.18862 2.79212C1.27989 2.88547 1.37117 2.97883 1.4583 3.06803L6.92246 8.96991C6.36858 9.51549 6.0823 10.2665 6.29182 11.0485C6.31049 11.117 6.36028 11.2498 6.42459 11.4053C6.49097 11.563 6.57395 11.7538 6.659 11.9406C6.74406 12.1273 6.83326 12.314 6.91002 12.4633C6.94736 12.538 6.9847 12.6044 7.01581 12.6583L7.10294 12.7849C7.20459 12.8969 7.32491 12.9156 7.43071 12.9156C7.49294 13.1998 7.56348 13.4902 7.63401 13.7827C7.79789 14.4548 7.96385 15.1415 8.04268 15.8302C8.15677 16.8446 8.0738 17.83 7.49502 18.7075C7.46805 18.749 7.42863 18.7967 7.38507 18.8527C7.36847 18.8734 7.35188 18.8942 7.33528 18.9149C7.27097 18.9958 7.20252 19.0892 7.15066 19.1867C7.10087 19.28 7.06145 19.3921 7.07597 19.5082C7.0905 19.6286 7.1631 19.7323 7.28964 19.8132C7.48879 19.9356 7.78752 19.9771 8.06965 19.9791C8.35592 19.9812 8.64635 19.9439 8.8455 19.8941C9.61098 19.7012 10.1545 19.2593 10.5611 18.6515C10.5611 18.7428 10.5569 18.832 10.5466 18.9212C10.5424 18.9689 10.532 19.0228 10.5217 19.085C10.5175 19.1203 10.5113 19.1556 10.5051 19.195C10.4885 19.2987 10.474 19.417 10.4802 19.5269C10.4885 19.6327 10.5175 19.7509 10.6067 19.8339C10.698 19.919 10.8308 19.948 10.9926 19.9293C11.8805 19.8236 12.5443 19.1265 12.9177 18.3673C12.9239 18.4876 12.9343 18.6141 12.953 18.7303C12.9779 18.8693 13.0214 19.0124 13.1127 19.112C13.2102 19.222 13.3492 19.2634 13.5214 19.2261C14.0234 19.1182 14.4321 18.7262 14.7349 18.2739C15.0399 17.8175 15.2515 17.2802 15.3573 16.8488V16.8342V16.7492C16.2223 16.8508 17.1268 16.7658 17.8674 16.2036C18.0665 16.0501 18.1806 15.9007 18.1869 15.7431C18.1931 15.5813 18.0831 15.463 17.9711 15.3821C17.857 15.2991 17.7077 15.2307 17.577 15.1726C17.5666 15.1684 17.5583 15.1643 17.55 15.1622C18.2283 15.0066 18.8569 14.5959 19.2925 14.0731C19.3776 13.9694 19.529 13.7682 19.6556 13.5586C19.7199 13.4528 19.778 13.3429 19.8195 13.2412C19.8589 13.1417 19.89 13.0338 19.8796 12.9404C19.8693 12.8616 19.8444 12.7911 19.7987 12.7351C19.7552 12.6791 19.6971 12.6417 19.6348 12.6189C19.5145 12.5753 19.3693 12.5816 19.2365 12.6023C19.1888 12.6085 19.1432 12.6189 19.0955 12.6293C19.5104 12.287 19.8278 11.8866 19.946 11.258H19.9481ZM1.44793 1.76526C1.41266 1.72792 1.37117 1.68643 1.32761 1.64287L1.32138 1.63664C1.27989 1.59515 1.23633 1.55366 1.19277 1.5101C1.10356 1.41675 1.02266 1.32132 0.972872 1.23627C0.92101 1.14499 0.914787 1.08691 0.929308 1.04957C0.945904 1.01223 0.995691 0.95414 1.15957 0.904353C1.17202 0.906427 1.20106 0.912651 1.24878 0.939619C1.30479 0.970736 1.37325 1.01845 1.45 1.08068C1.60351 1.20515 1.78192 1.38148 1.9624 1.57026C2.14288 1.75904 2.32128 1.95819 2.47272 2.13037C2.51006 2.17186 2.54532 2.21127 2.57852 2.24861C2.68224 2.36478 2.76729 2.46228 2.8233 2.52037L7.34566 7.39953C7.42863 7.48666 7.50954 7.57171 7.59252 7.65676C7.71284 7.77916 7.83108 7.90155 7.94725 8.03017L7.63401 8.34134L7.59044 8.37868L1.44793 1.76526ZM8.07587 11.4012C7.91614 11.5257 7.74603 11.6646 7.59667 11.8202C7.52199 11.6875 7.43486 11.5215 7.3581 11.3493C7.25023 11.1149 7.16518 10.8846 7.14028 10.7311C7.0739 10.3204 7.20252 10.0217 7.42241 9.75406C7.53443 9.61922 7.6672 9.49267 7.81241 9.36613C7.85805 9.32464 7.90369 9.28523 7.9514 9.24374C8.05305 9.15661 8.15677 9.06533 8.25428 8.97405L8.93263 8.32682C8.9513 8.30815 8.96997 8.28948 8.98864 8.27288C9.11726 8.14841 9.20646 8.06129 9.30811 7.99698C9.41805 7.92437 9.54667 7.87458 9.75412 7.84139C10.3557 7.76464 10.7167 8.12974 11.1357 8.55709L11.1793 8.60065C10.8453 8.89937 10.5072 9.1981 10.1669 9.49475C10.142 9.51549 10.1192 9.53624 10.0964 9.55698C9.74997 9.85985 9.40353 10.1627 9.06332 10.4698C9.00109 10.5258 8.93055 10.588 8.85587 10.6523C8.59034 10.8846 8.27295 11.1647 8.07587 11.4012ZM18.9357 11.4551C18.7781 11.7684 18.4835 12.0318 18.052 12.2476C17.1849 12.6853 16.241 12.6231 15.3407 12.2974C14.4383 11.9717 13.5857 11.3825 12.9177 10.7788C12.8845 10.7498 12.8513 10.7166 12.816 10.6834C12.8077 10.6772 12.8015 10.6689 12.7932 10.6627C12.7497 10.6212 12.7061 10.5797 12.6584 10.5403C12.565 10.4594 12.4551 10.3847 12.3244 10.3432H12.3223L12.3016 10.337L12.2705 10.3266L12.2414 10.3349C12.1252 10.366 12.0277 10.4075 11.9531 10.4822C11.8763 10.5569 11.8348 10.6544 11.8058 10.7747L11.7975 10.8017L11.8058 10.8286C11.8556 11.0278 12.0028 11.1958 12.1522 11.3327C12.229 11.4012 12.3099 11.4676 12.3866 11.5257C12.4053 11.5423 12.426 11.5568 12.4447 11.5713C12.4986 11.6149 12.5484 11.6522 12.5941 11.6895C13.5898 12.5173 14.7785 13.206 16.0979 13.3865C16.3426 13.4197 16.5605 13.4238 16.7741 13.4217C16.8384 13.4217 16.9007 13.4197 16.9629 13.4197C17.1081 13.4155 17.2513 13.4134 17.4069 13.4176C17.438 13.4259 17.4691 13.4342 17.5002 13.4425C17.7222 13.5047 17.8798 13.5503 18.0437 13.5752C18.1744 13.596 18.3092 13.6064 18.4835 13.6064C17.9089 14.1582 17.2015 14.4133 16.3675 14.4113C16.3344 14.3698 16.2887 14.3075 16.2327 14.2308C16.2203 14.2121 16.2057 14.1934 16.1891 14.1727C16.0999 14.0503 15.9921 13.9072 15.88 13.7889C15.768 13.6727 15.6373 13.5628 15.4963 13.5296C15.4216 13.5109 15.3428 13.5151 15.266 13.5503C15.1934 13.5856 15.1312 13.6478 15.0793 13.7308C14.9528 13.93 15.0357 14.1644 15.1643 14.3677C15.2992 14.5772 15.5129 14.7992 15.7431 15.0045C16.0958 15.3178 16.5024 15.6061 16.7575 15.7763C15.8406 16.0667 15.0212 15.8385 14.32 15.3385C13.5629 14.7992 12.9488 13.9466 12.5235 13.1023C12.5132 13.0836 12.5028 13.0587 12.4903 13.0317C12.4385 12.9239 12.3638 12.7703 12.2725 12.6521C12.2124 12.5774 12.1377 12.5069 12.0443 12.4695C11.9427 12.4322 11.8327 12.4364 11.7207 12.4965C11.6419 12.5401 11.5817 12.6002 11.5423 12.6728C11.505 12.7454 11.4925 12.8243 11.4946 12.9052C11.4946 13.0608 11.5568 13.2309 11.6315 13.3906C11.7394 13.6188 11.8971 13.8594 12.0091 14.0295C12.0526 14.0959 12.0879 14.1499 12.1128 14.1914C12.6916 15.1684 13.4467 15.9505 14.4777 16.4629C14.4175 17.079 14.1873 17.5562 13.8076 18.0125C13.7454 17.5624 13.5732 17.1724 13.3533 16.8093C13.1708 16.5127 12.953 16.2285 12.7372 15.9464C12.6439 15.826 12.5526 15.7057 12.4655 15.5854C12.4302 15.5398 12.3991 15.49 12.3659 15.436C12.3576 15.4194 12.3472 15.4028 12.3368 15.3863C12.2912 15.3157 12.2414 15.239 12.1792 15.1726C12.09 15.0772 11.9697 15.0357 11.8535 15.0357C11.812 15.0357 11.7705 15.0419 11.7311 15.0523C11.5817 15.0938 11.4469 15.2099 11.4158 15.3904C11.395 15.5149 11.449 15.6559 11.5174 15.7825C11.588 15.9132 11.6896 16.0584 11.7954 16.1953C11.8908 16.3218 11.9946 16.4463 12.0879 16.5563C12.0962 16.5687 12.1066 16.5791 12.1149 16.5915C12.2041 16.6994 12.2788 16.7886 12.3265 16.8571C12.3327 17.6537 12.1107 18.3652 11.449 18.7967C11.4469 18.4834 11.4261 18.164 11.3432 17.8507C11.2809 17.6142 11.2228 17.4773 11.1814 17.3798C11.1648 17.3404 11.1523 17.3093 11.1419 17.2802C11.1025 17.1724 11.0818 17.0521 11.0922 16.6869C11.1295 15.4651 10.6109 14.0192 10.1752 12.9218C10.1607 12.8865 10.1462 12.8429 10.1275 12.7952C10.1234 12.7807 10.1172 12.7683 10.113 12.7558C10.0881 12.6894 10.0611 12.6168 10.0321 12.5463C10.0031 12.4758 9.97194 12.4052 9.93667 12.3409C9.90141 12.2787 9.86199 12.2165 9.81635 12.1729C9.66492 12.0277 9.45954 12.0381 9.31226 12.121C9.18571 12.1936 9.08406 12.3306 9.08406 12.4965C9.08406 12.5256 9.08614 12.5525 9.09236 12.5816C9.11518 12.6957 9.18156 12.8637 9.25002 13.0214C9.27077 13.0732 9.29566 13.1272 9.31641 13.1769C9.36204 13.2807 9.40146 13.3761 9.4305 13.4487C9.74582 14.2868 10.1109 15.3033 10.1877 16.1725C10.2561 16.9753 10.1441 17.6744 9.81428 18.1889C9.51763 18.6494 9.03635 18.9709 8.31651 19.0747C9.40561 17.3155 8.943 15.3904 8.49284 13.513L8.47832 13.4549C8.44513 13.3159 8.40364 13.1769 8.36422 13.04C8.35385 13.0048 8.34348 12.9716 8.3331 12.9384C8.28747 12.7766 8.2439 12.621 8.21486 12.4675C8.54263 12.1376 8.91396 11.8099 9.27699 11.4904C9.38279 11.397 9.48859 11.3037 9.59231 11.2124L11.7332 9.30182C11.8431 9.36198 11.951 9.43251 12.063 9.50512C12.0775 9.51342 12.0921 9.52379 12.1066 9.53416C12.2248 9.61092 12.3472 9.68975 12.4717 9.76028C13.4778 10.3266 14.6416 10.951 15.8074 11.2C16.9256 11.4365 18.0541 11.3265 19.0436 10.4843C19.1141 10.8639 19.0727 11.1834 18.9357 11.4551Z" fill="white" stroke="white" stroke-width="0.2"/>
</g>
<defs>
<clipPath id="clip0_5181_10152">
<rect width="20" height="20" fill="white"/>
</clipPath>
</defs>
</svg>
