<svg width="32" height="32" viewBox="0 0 32 32" fill="none" xmlns="http://www.w3.org/2000/svg">
<mask id="mask0_6762_23194" style="mask-type:luminance" maskUnits="userSpaceOnUse" x="3" y="1" width="26" height="31">
<path d="M3 1H29V31.0969H3V1Z" fill="white"/>
</mask>
<g mask="url(#mask0_6762_23194)">
<path d="M29 1C29 1 19.5295 3.32875 15.8276 4.33951L9.08084 5.92211L3.0163 4.33951C3.0163 4.33951 3 8.93556 3 11.2806L9.131 12.9761C9.131 12.9761 29 7.9386 29 8.07278V1Z" fill="white"/>
<path d="M25.6906 10.2385L9.01939 14.4697L3 12.8294L3.01505 19.5861C4.55752 20.1454 9.07331 21.5048 9.07331 21.5048L25.6906 17.3126V10.2385Z" fill="white"/>
<path d="M9.15984 22.9821L3 21.4935C3 21.4935 3.0163 22.9169 3.0163 24.892V28.4798L9.0545 30.095L29 25.1604V18.1177L9.15984 22.9834V22.9821Z" fill="white"/>
</g>
</svg>
