<svg width="20" height="20" viewBox="0 0 20 20" fill="none" xmlns="http://www.w3.org/2000/svg">
<circle cx="10" cy="10" r="10" fill="#030D1B"/>
<path fill-rule="evenodd" clip-rule="evenodd" d="M10 0.689655C4.85804 0.689655 0.689655 4.85804 0.689655 10C0.689655 15.142 4.85804 19.3103 10 19.3103C15.142 19.3103 19.3103 15.142 19.3103 10C19.3103 4.85804 15.142 0.689655 10 0.689655ZM0 10C0 4.47716 4.47716 0 10 0C15.5228 0 20 4.47716 20 10C20 15.5228 15.5228 20 10 20C4.47716 20 0 15.5228 0 10Z" fill="url(#paint0_linear_4118_8694)"/>
<g clip-path="url(#clip0_4118_8694)">
<path d="M4.79088 3.88477C4.70452 3.96677 4.25547 4.41131 4.30153 5.03568C4.32312 5.32916 4.44402 5.53776 4.51022 5.6471C4.87148 6.25277 5.5249 6.4441 5.73359 6.4959C5.80555 6.16932 5.87751 5.84419 5.94948 5.51762C6.12219 5.59962 6.2949 5.68019 6.46761 5.76219C6.18264 7.09293 5.89622 8.42367 5.61125 9.75441C5.29462 9.60623 4.97798 9.45661 4.66134 9.30843C4.71891 9.19334 4.77648 9.07825 4.83405 8.96316C4.94632 9.01351 5.06002 9.06387 5.17228 9.11422C5.20394 8.95885 5.23417 8.80203 5.26583 8.64666C5.04419 8.59487 4.02232 8.33448 3.41639 7.34469C3.25375 7.07998 2.72411 6.2168 3.09256 5.25147C3.5085 4.15955 4.70452 3.90203 4.79088 3.88477Z" fill="url(#paint1_linear_4118_8694)"/>
<path d="M9.71289 7.82688C9.80932 7.62548 9.90431 7.42407 10.0007 7.22266C10.0972 7.42407 10.1922 7.62548 10.2886 7.82688C10.2886 9.91723 10.2886 12.009 10.2886 14.0993C10.1015 13.9224 9.91439 13.744 9.72728 13.5671C9.72297 11.6537 9.71721 9.74027 9.71289 7.82688Z" fill="url(#paint2_linear_4118_8694)"/>
<path d="M9.7207 17.8291C9.81713 17.9715 9.91212 18.114 10.0086 18.2564C10.105 18.114 10.2 17.9715 10.2964 17.8291C10.2964 17.2637 10.2964 16.6983 10.2964 16.1344C10.105 15.9661 9.91212 15.7992 9.7207 15.6309C9.7207 16.3631 9.7207 17.0968 9.7207 17.8291Z" fill="url(#paint3_linear_4118_8694)"/>
<path d="M8.72656 16.9687C8.91798 17.0838 9.11084 17.1989 9.30226 17.314C9.30226 16.6335 9.30226 15.9516 9.30226 15.2711C9.11084 15.1028 8.91798 14.9359 8.72656 14.7676C8.72656 15.5013 8.72656 16.235 8.72656 16.9687Z" fill="url(#paint4_linear_4118_8694)"/>
<path d="M7.7273 15.9691C7.91872 16.0842 8.11158 16.1993 8.303 16.3144C8.30588 15.6785 8.30732 15.0441 8.3102 14.4082C8.11878 14.4082 7.92592 14.4082 7.7345 14.4082C7.7345 14.6916 7.7345 14.9736 7.7345 15.257C7.41355 15.07 7.09115 14.883 6.7702 14.6959C6.54424 14.7966 6.31971 14.8973 6.09375 14.998C6.63923 15.3203 7.18326 15.644 7.7273 15.9691Z" fill="url(#paint5_linear_4118_8694)"/>
<path d="M12.2827 8.81914L12.7144 8.6465C12.6928 8.46236 12.654 8.18614 12.5849 7.85525C12.4194 7.06544 12.3042 6.52307 11.8941 5.99941C11.7645 5.83396 11.504 5.50164 11.0737 5.29447C10.9067 5.21391 10.6505 5.1204 10.498 5.06429C10.2922 4.98948 10.118 4.93194 9.99424 4.89453C9.87191 4.93337 9.70064 4.99092 9.4977 5.06429C9.33363 5.12471 9.0832 5.21679 8.922 5.29447C8.49166 5.50164 8.23116 5.83396 8.10162 5.99941C7.69144 6.52307 7.5763 7.06544 7.41078 7.85525C7.3417 8.18614 7.30284 8.46236 7.28125 8.6465L7.71303 8.81914C7.93323 8.61341 8.15488 8.40625 8.37508 8.20052C8.23116 8.0955 8.08723 7.98904 7.94331 7.88402C7.99656 7.78332 8.04837 7.68261 8.10162 7.58191C8.37076 7.779 8.63847 7.97466 8.90761 8.17175C8.62983 8.43502 8.35062 8.69973 8.07284 8.963C8.5003 9.13564 8.92632 9.30828 9.35378 9.48091V7.86964C8.98964 7.60637 8.62407 7.34166 8.25994 7.07839C8.31319 6.97768 8.36501 6.87698 8.41826 6.77627C8.6874 6.97336 8.9551 7.16902 9.22424 7.36611C9.48187 7.15607 9.7395 6.94603 9.99856 6.73599C10.2562 6.94603 10.5138 7.15607 10.7729 7.36611C11.042 7.16902 11.3097 6.97336 11.5789 6.77627C11.6321 6.87698 11.6839 6.97768 11.7372 7.07839C11.373 7.34166 11.0075 7.60637 10.6433 7.86964V9.48091C11.0708 9.30828 11.4968 9.13564 11.9243 8.963C11.6465 8.69973 11.3673 8.43502 11.0895 8.17175C11.3587 7.97466 11.6264 7.779 11.8955 7.58191C11.9487 7.68261 12.0006 7.78332 12.0538 7.88402C11.9056 7.9315 11.8552 8.00631 11.8379 8.04227C11.7429 8.23074 11.9013 8.5645 12.2827 8.81914ZM10.8146 6.71873C10.544 6.52451 10.272 6.32885 10.0014 6.13464C10 6.1332 9.99856 6.1332 9.99856 6.13176C9.99712 6.1332 9.99568 6.1332 9.99568 6.13464C9.7251 6.32885 9.45308 6.52451 9.1825 6.71873C9.0429 6.61802 8.90473 6.51732 8.76512 6.41661C8.87738 6.27275 9.0357 6.09723 9.25447 5.92747C9.5308 5.71312 9.79994 5.58939 9.99568 5.51746C10.1929 5.58796 10.4649 5.71168 10.7441 5.92747C10.9629 6.09723 11.1226 6.27275 11.2334 6.41661C11.0924 6.51732 10.9542 6.61802 10.8146 6.71873Z" fill="url(#paint6_linear_4118_8694)"/>
<path d="M6.00781 9.94864C6.29566 8.61502 6.58351 7.28284 6.87136 5.94922C7.04839 6.03985 7.22686 6.13193 7.40389 6.22256C7.12036 7.55042 6.83826 8.87973 6.55473 10.2076C6.37194 10.1213 6.1906 10.035 6.00781 9.94864Z" fill="url(#paint7_linear_4118_8694)"/>
<path d="M7.01953 9.86497C7.74635 10.1527 8.47174 10.4404 9.19856 10.7281C9.25469 10.4735 9.30938 10.2189 9.36551 9.96279C8.63869 9.67506 7.91331 9.38734 7.18648 9.09961C7.13035 9.35425 7.07566 9.60889 7.01953 9.86497Z" fill="url(#paint8_linear_4118_8694)"/>
<path d="M3.89062 10.0779C4.18135 10.1541 4.62608 10.3081 5.08521 10.639C5.64939 11.0461 5.96459 11.5237 6.12147 11.8043C6.29418 11.6503 6.46689 11.4978 6.6396 11.3439C6.49423 11.0907 6.23949 10.7195 5.81922 10.38C5.26079 9.92827 4.69229 9.75851 4.37997 9.68945C4.21734 9.81893 4.05326 9.94841 3.89062 10.0779Z" fill="url(#paint9_linear_4118_8694)"/>
<path d="M15.2041 3.88477C15.2904 3.96677 15.7395 4.41131 15.6934 5.03568C15.6718 5.32916 15.5509 5.53776 15.4847 5.6471C15.1235 6.25277 14.4701 6.4441 14.2614 6.4959C14.1894 6.16932 14.1174 5.84419 14.0455 5.51762C13.8728 5.59962 13.7001 5.68019 13.5273 5.76219C13.8123 7.09293 14.0987 8.42367 14.3837 9.75441C14.7003 9.60623 15.017 9.45661 15.3336 9.30843C15.276 9.19334 15.2185 9.07825 15.1609 8.96316C15.0486 9.01351 14.9349 9.06387 14.8227 9.11422C14.791 8.95885 14.7608 8.80203 14.7291 8.64666C14.9508 8.59487 15.9726 8.33448 16.5786 7.34469C16.7412 7.07998 17.2708 6.2168 16.9024 5.25147C16.4864 4.15955 15.2904 3.90203 15.2041 3.88477Z" fill="url(#paint10_linear_4118_8694)"/>
<path d="M13.9879 9.94864C13.7 8.61502 13.4122 7.28284 13.1243 5.94922C12.9473 6.03985 12.7688 6.13193 12.5918 6.22256C12.8753 7.55042 13.1574 8.87973 13.441 10.2076C13.6237 10.1213 13.8051 10.035 13.9879 9.94864Z" fill="url(#paint11_linear_4118_8694)"/>
<path d="M12.9749 9.86497C12.2481 10.1527 11.5227 10.4404 10.7959 10.7281C10.7397 10.4735 10.685 10.2189 10.6289 9.96279C11.3557 9.67506 12.0811 9.38734 12.8079 9.09961C12.8641 9.35425 12.9188 9.60889 12.9749 9.86497Z" fill="url(#paint12_linear_4118_8694)"/>
<path d="M16.1025 10.0779C15.8118 10.1541 15.367 10.3081 14.9079 10.639C14.3437 11.0461 14.0285 11.5237 13.8716 11.8043C13.6989 11.6503 13.5262 11.4978 13.3535 11.3439C13.4989 11.0907 13.7536 10.7195 14.1739 10.38C14.7323 9.92827 15.3008 9.75851 15.6131 9.68945C15.7758 9.81893 15.9399 9.94841 16.1025 10.0779Z" fill="url(#paint13_linear_4118_8694)"/>
<path d="M10.8856 17.2143C11.0972 17.0906 11.3073 16.9669 11.5189 16.8432C11.5189 16.6691 11.5189 16.4965 11.5189 16.3224C11.873 16.2188 12.3767 16.0289 12.9006 15.6606C13.3065 15.3758 13.6029 15.0722 13.8073 14.8262C13.6778 14.7399 13.5482 14.6536 13.4187 14.5673C13.3439 14.668 13.246 14.783 13.1165 14.8981C12.9394 15.0564 12.7653 15.16 12.6271 15.229C12.558 15.019 12.5868 14.8909 12.6271 14.8118C12.689 14.691 12.7768 14.6823 12.9869 14.4953C13.1237 14.373 13.2071 14.2982 13.246 14.1932C13.3338 13.9573 13.1568 13.6868 13.0733 13.5746C12.9826 13.8753 12.7336 14.0867 12.4544 14.1069C12.1838 14.1256 11.991 13.9573 11.9507 13.9199C11.9507 14.4565 11.9507 14.9945 11.9507 15.5311C11.8067 15.593 11.6628 15.6563 11.5189 15.7182C11.5189 14.9701 11.5189 14.222 11.5189 13.4739C12.037 13.1905 12.5552 12.9085 13.0733 12.6251C13.305 12.8092 13.6907 13.0668 14.2247 13.2149C14.5269 13.2984 14.8004 13.3257 15.0163 13.33C15.1127 13.0466 15.2077 12.7646 15.3041 12.4812C15.1976 12.5172 15.0379 12.5604 14.8436 12.5675C14.3758 12.5862 14.0304 12.3906 13.8361 12.2798C12.974 11.7907 12.5436 10.7304 12.4688 10.5391C12.2486 10.6153 12.027 10.693 11.8067 10.7692C11.919 11.0052 12.0557 11.2627 12.2241 11.5317C12.3681 11.7619 12.5149 11.9691 12.6559 12.1503C12.2774 12.3517 11.8974 12.5532 11.5189 12.7546C11.5189 12.4913 11.5189 12.2266 11.5189 11.9633C11.303 12.0914 11.0871 12.2208 10.8712 12.3489C10.8741 13.2509 10.877 14.1515 10.8799 15.0535C10.687 14.9068 10.1761 14.5212 10.0077 14.3946C9.35714 13.9026 9.02467 13.6537 8.72675 13.517C8.62888 13.4724 7.99129 13.1876 7.35946 13.3012C7.22704 13.3257 7.07304 13.3703 6.97086 13.5027C6.87299 13.6293 6.81686 13.8465 6.91329 13.9918C6.92624 14.0105 6.96654 14.0666 7.05721 14.1069C7.29181 14.2105 7.46164 14.0278 7.79123 13.9918C8.11218 13.9558 8.37845 14.0824 8.58282 14.1788C8.83757 14.2997 9.0002 14.4464 9.07217 14.5097C9.43486 14.8334 10.0365 15.3225 10.8813 15.9944C10.8827 16.4001 10.8842 16.8072 10.8856 17.2143Z" fill="url(#paint14_linear_4118_8694)"/>
<path d="M8.0937 10.9275C8.347 11.1347 8.45927 11.3462 8.51108 11.4742C8.59024 11.6684 8.60031 11.8684 8.61902 12.2583C8.63054 12.5144 8.6291 12.7258 8.62622 12.8697C8.85218 12.9992 9.07671 13.1287 9.30267 13.2581C9.32714 12.9229 9.32858 12.641 9.32426 12.4309C9.3113 11.7922 9.2379 11.5836 9.18033 11.4526C9.13572 11.3505 9.07095 11.2081 8.93566 11.0642C8.77878 10.8973 8.6219 10.8312 7.97136 10.5895C7.73532 10.5017 7.53958 10.4312 7.40285 10.3809C7.35248 10.5132 7.26756 10.7218 7.13659 10.9635C6.94085 11.3275 6.58248 11.9734 5.89883 12.359C5.56781 12.546 5.35192 12.5633 5.22238 12.5604C5.01081 12.5561 4.84242 12.4899 4.74023 12.4381C4.82227 12.769 4.90287 13.0999 4.98491 13.4308C5.24397 13.3962 5.59659 13.3214 5.98519 13.1502C6.42272 12.9575 6.74224 12.7158 6.94949 12.5316C7.14811 12.6352 7.34816 12.7374 7.54678 12.8409C7.71949 12.7733 7.8922 12.7071 8.06491 12.6395C7.79865 12.4698 7.53239 12.2986 7.26612 12.1288C7.41005 11.9806 7.56981 11.795 7.72669 11.5677C7.88644 11.3361 8.00446 11.1174 8.0937 10.9275Z" fill="url(#paint15_linear_4118_8694)"/>
</g>
<defs>
<linearGradient id="paint0_linear_4118_8694" x1="0.692641" y1="9.99999" x2="20" y2="9.99999" gradientUnits="userSpaceOnUse">
<stop stop-color="#91B9DE"/>
<stop offset="0.0001" stop-color="#91B9DE"/>
<stop offset="1" stop-color="#40708B"/>
</linearGradient>
<linearGradient id="paint1_linear_4118_8694" x1="4.71623" y1="3.88477" x2="4.71623" y2="9.75441" gradientUnits="userSpaceOnUse">
<stop offset="0.610313" stop-color="#F3F3F3"/>
<stop offset="1" stop-color="#636363"/>
</linearGradient>
<linearGradient id="paint2_linear_4118_8694" x1="9.73283" y1="10.661" x2="10.2886" y2="10.661" gradientUnits="userSpaceOnUse">
<stop stop-color="#91B9DE"/>
<stop offset="0.0001" stop-color="#91B9DE"/>
<stop offset="1" stop-color="#40708B"/>
</linearGradient>
<linearGradient id="paint3_linear_4118_8694" x1="9.74064" y1="16.9436" x2="10.2964" y2="16.9436" gradientUnits="userSpaceOnUse">
<stop stop-color="#91B9DE"/>
<stop offset="0.0001" stop-color="#91B9DE"/>
<stop offset="1" stop-color="#40708B"/>
</linearGradient>
<linearGradient id="paint4_linear_4118_8694" x1="8.7465" y1="16.0408" x2="9.30226" y2="16.0408" gradientUnits="userSpaceOnUse">
<stop stop-color="#91B9DE"/>
<stop offset="0.0001" stop-color="#91B9DE"/>
<stop offset="1" stop-color="#40708B"/>
</linearGradient>
<linearGradient id="paint5_linear_4118_8694" x1="7.20198" y1="14.4082" x2="7.20198" y2="16.3144" gradientUnits="userSpaceOnUse">
<stop offset="0.610313" stop-color="#F3F3F3"/>
<stop offset="1" stop-color="#636363"/>
</linearGradient>
<linearGradient id="paint6_linear_4118_8694" x1="9.99784" y1="4.89453" x2="9.99784" y2="9.48091" gradientUnits="userSpaceOnUse">
<stop offset="0.610313" stop-color="#F3F3F3"/>
<stop offset="1" stop-color="#636363"/>
</linearGradient>
<linearGradient id="paint7_linear_4118_8694" x1="6.05616" y1="8.0784" x2="7.40389" y2="8.0784" gradientUnits="userSpaceOnUse">
<stop stop-color="#91B9DE"/>
<stop offset="0.0001" stop-color="#91B9DE"/>
<stop offset="1" stop-color="#40708B"/>
</linearGradient>
<linearGradient id="paint8_linear_4118_8694" x1="7.10078" y1="9.91388" x2="9.36551" y2="9.91388" gradientUnits="userSpaceOnUse">
<stop stop-color="#91B9DE"/>
<stop offset="0.0001" stop-color="#91B9DE"/>
<stop offset="1" stop-color="#40708B"/>
</linearGradient>
<linearGradient id="paint9_linear_4118_8694" x1="3.98583" y1="10.7469" x2="6.6396" y2="10.7469" gradientUnits="userSpaceOnUse">
<stop stop-color="#91B9DE"/>
<stop offset="0.0001" stop-color="#91B9DE"/>
<stop offset="1" stop-color="#40708B"/>
</linearGradient>
<linearGradient id="paint10_linear_4118_8694" x1="15.2787" y1="3.88477" x2="15.2787" y2="9.75441" gradientUnits="userSpaceOnUse">
<stop offset="0.610313" stop-color="#F3F3F3"/>
<stop offset="1" stop-color="#636363"/>
</linearGradient>
<linearGradient id="paint11_linear_4118_8694" x1="12.6401" y1="8.0784" x2="13.9879" y2="8.0784" gradientUnits="userSpaceOnUse">
<stop stop-color="#91B9DE"/>
<stop offset="0.0001" stop-color="#91B9DE"/>
<stop offset="1" stop-color="#40708B"/>
</linearGradient>
<linearGradient id="paint12_linear_4118_8694" x1="10.7102" y1="9.91388" x2="12.9749" y2="9.91388" gradientUnits="userSpaceOnUse">
<stop stop-color="#91B9DE"/>
<stop offset="0.0001" stop-color="#91B9DE"/>
<stop offset="1" stop-color="#40708B"/>
</linearGradient>
<linearGradient id="paint13_linear_4118_8694" x1="13.4487" y1="10.7469" x2="16.1025" y2="10.7469" gradientUnits="userSpaceOnUse">
<stop stop-color="#91B9DE"/>
<stop offset="0.0001" stop-color="#91B9DE"/>
<stop offset="1" stop-color="#40708B"/>
</linearGradient>
<linearGradient id="paint14_linear_4118_8694" x1="11.0837" y1="10.5391" x2="11.0837" y2="17.2143" gradientUnits="userSpaceOnUse">
<stop offset="0.610313" stop-color="#F3F3F3"/>
<stop offset="1" stop-color="#636363"/>
</linearGradient>
<linearGradient id="paint15_linear_4118_8694" x1="7.0332" y1="10.3809" x2="7.0332" y2="13.4308" gradientUnits="userSpaceOnUse">
<stop offset="0.610313" stop-color="#F3F3F3"/>
<stop offset="1" stop-color="#636363"/>
</linearGradient>
<clipPath id="clip0_4118_8694">
<rect width="14.1191" height="14.3864" fill="white" transform="translate(2.94141 3.86328)"/>
</clipPath>
</defs>
</svg>
