<svg width="32" height="32" viewBox="0 0 32 32" fill="none" xmlns="http://www.w3.org/2000/svg">
<g clip-path="url(#clip0_4957_9862)">
<path d="M32 16.0039C32 7.16735 24.8366 0.00390625 16 0.00390625C7.16344 0.00390625 0 7.16735 0 16.0039C0 24.8405 7.16344 32.0039 16 32.0039C24.8366 32.0039 32 24.8405 32 16.0039Z" fill="#091326"/>
<path opacity="0.7" d="M26.88 23.7803C24.4545 27.1458 20.4966 29.3373 16.026 29.3373C8.6484 29.3373 2.66663 23.3674 2.66663 16.0035C2.66663 8.63953 8.6484 2.67065 16.026 2.67065C20.4876 2.67065 24.4384 4.85308 26.8638 8.20648" stroke="url(#paint0_radial_4957_9862)" stroke-linecap="round" stroke-linejoin="round"/>
<path d="M15.6148 14.2905C15.467 14.0577 15.5439 13.7737 15.763 13.6355L15.6148 14.2905ZM15.6148 14.2905L15.6195 14.2971L15.7158 14.4335C15.8619 14.6405 16.1688 14.7087 16.3902 14.5694L21.2378 11.507C21.4543 11.3705 21.5384 11.0679 21.3814 10.8453L21.2851 10.7089C21.139 10.5019 20.832 10.4336 20.6107 10.573L15.763 13.6355L15.6148 14.2905ZM21.2382 20.4727L13.0014 15.2914V11.0627C13.0014 10.7496 12.7251 10.5019 12.4174 10.5019C12.1097 10.5019 11.8334 10.7496 11.8334 11.0627V20.917C11.8334 21.2302 12.1097 21.4778 12.4174 21.4778C12.7251 21.4778 13.0014 21.2302 13.0014 20.917V16.6253L20.5951 21.4067C20.8582 21.5723 21.2152 21.5143 21.3979 21.2557L21.4283 21.2125V21.1954C21.5762 20.9487 21.4883 20.6303 21.2382 20.4727Z" fill="white"/>
<path d="M15.6148 14.2905C15.467 14.0577 15.5439 13.7737 15.763 13.6355M15.6148 14.2905L15.763 13.6355M15.6148 14.2905L15.6195 14.2971L15.7158 14.4335C15.8619 14.6405 16.1688 14.7087 16.3902 14.5694L21.2378 11.507M15.763 13.6355L20.6107 10.573C20.832 10.4336 21.139 10.5019 21.2851 10.7089L21.3814 10.8453C21.5384 11.0679 21.4543 11.3705 21.2378 11.507M21.2378 11.507L21.149 11.366M21.2382 20.4727L13.0014 15.2914V11.0627C13.0014 10.7496 12.7251 10.5019 12.4174 10.5019C12.1097 10.5019 11.8334 10.7496 11.8334 11.0627V20.917C11.8334 21.2302 12.1097 21.4778 12.4174 21.4778C12.7251 21.4778 13.0014 21.2302 13.0014 20.917V16.6253L20.5951 21.4067C20.8582 21.5723 21.2152 21.5143 21.3979 21.2557L21.4283 21.2125V21.1954C21.5762 20.9487 21.4883 20.6303 21.2382 20.4727Z" stroke="white" stroke-width="0.25"/>
</g>
<defs>
<radialGradient id="paint0_radial_4957_9862" cx="0" cy="0" r="1" gradientUnits="userSpaceOnUse" gradientTransform="translate(28.7869 9.39689) rotate(108.872) scale(15.1081 36.6381)">
<stop offset="0.139194" stop-color="white" stop-opacity="0.5"/>
<stop offset="0.620501" stop-color="white" stop-opacity="0.8"/>
<stop offset="1" stop-color="white"/>
</radialGradient>
<clipPath id="clip0_4957_9862">
<rect width="32" height="32" fill="white"/>
</clipPath>
</defs>
</svg>
