<svg width="32" height="32" viewBox="0 0 32 32" fill="none" xmlns="http://www.w3.org/2000/svg">
<g clip-path="url(#clip0_8990_12239)">
<path d="M16 32C24.8366 32 32 24.8366 32 16C32 7.16344 24.8366 0 16 0C7.16344 0 0 7.16344 0 16C0 24.8366 7.16344 32 16 32Z" fill="#7132F5"/>
<path d="M8.00312 18.7938C8.00312 18.4906 8.00937 18.1844 8 17.8813C7.9875 17.2906 8.02812 16.7094 8.12812 16.125C8.29687 15.1531 8.60312 14.2344 9.10312 13.3844C9.94375 11.9563 11.1281 10.9094 12.6219 10.2031C13.2844 9.89063 13.9781 9.66875 14.7062 9.55938C15.0844 9.50313 15.4625 9.45625 15.8469 9.45938C17.4812 9.47188 19.0031 9.875 20.3781 10.7781C21.725 11.6625 22.7375 12.8313 23.3437 14.3344C23.6281 15.0406 23.8062 15.7781 23.8969 16.5344C24 17.3688 24.0062 18.2063 23.9906 19.0438C23.9812 19.4969 23.9844 19.95 23.9781 20.4C23.975 20.5969 23.9687 20.7937 23.9156 20.9875C23.7125 21.7375 22.8562 22.0781 22.2281 21.6625C21.9469 21.4781 21.8094 21.2063 21.7594 20.8813C21.725 20.6625 21.7062 20.4438 21.7062 20.2219C21.7062 19.3125 21.7062 18.4 21.7062 17.4906C21.7062 17.1344 21.5937 16.8156 21.35 16.5531C20.925 16.0969 20.2687 16.0781 19.7906 16.5C19.5219 16.7375 19.4 17.0406 19.375 17.3906C19.3656 17.5219 19.3625 17.6531 19.3625 17.7813C19.3594 18.7844 19.3656 19.7875 19.3562 20.7938C19.35 21.3625 18.9187 21.7969 18.3375 21.8375C17.7812 21.875 17.2906 21.4938 17.1969 20.9438C17.1719 20.7938 17.1625 20.6406 17.1625 20.4844C17.1625 19.475 17.1656 18.4656 17.1625 17.4563C17.1594 17.1156 17.0469 16.8156 16.8094 16.5656C16.3312 16.0625 15.6094 16.0781 15.1469 16.5938C14.9187 16.8469 14.8187 17.1406 14.8187 17.475C14.8187 18.4719 14.8156 19.4719 14.8187 20.4688C14.8187 20.725 14.7875 20.9781 14.6812 21.2156C14.4969 21.625 14.1094 21.8656 13.6625 21.85C13.2375 21.8375 12.875 21.5688 12.7125 21.1406C12.6469 20.9719 12.6187 20.7937 12.6187 20.6125C12.6219 19.6469 12.6219 18.6813 12.6156 17.7156C12.6156 17.5 12.6062 17.2844 12.5437 17.0781C12.3969 16.6031 12.0812 16.3 11.5906 16.2188C11.0937 16.1375 10.725 16.3719 10.4469 16.7719C10.3156 16.9625 10.2719 17.1781 10.2719 17.4063C10.2719 18.325 10.275 19.2406 10.275 20.1563C10.275 20.425 10.2812 20.6969 10.2187 20.9625C10.1187 21.4031 9.69375 21.8875 9.05 21.8406C8.60937 21.8063 8.18437 21.4406 8.05937 20.975C8.01562 20.8094 8.00312 20.6375 8.00312 20.4656C8.00625 19.9094 8.00625 19.35 8.00312 18.7938Z" fill="white"/>
</g>
<defs>
<clipPath id="clip0_8990_12239">
<rect width="32" height="32" fill="white"/>
</clipPath>
</defs>
</svg>
