<svg width="32" height="32" viewBox="0 0 32 32" fill="none" xmlns="http://www.w3.org/2000/svg">
<g clip-path="url(#clip0_5181_9971)">
<g clip-path="url(#clip1_5181_9971)">
<path d="M16 32C24.8366 32 32 24.8366 32 16C32 7.16345 24.8366 0 16 0C7.16345 0 0 7.16345 0 16C0 24.8366 7.16345 32 16 32Z" fill="#C8ECE1"/>
<path d="M5.29524 11.889C5.08172 11.6902 5.28095 11.4418 5.45579 11.3052C5.67519 11.0997 5.89249 10.8765 6.09844 10.6798C7.01512 9.74672 7.93219 8.84055 8.96785 8.04823C9.10908 7.58174 9.76138 7.96716 9.48569 8.34249C8.19239 9.37182 7.01974 10.5545 5.85046 11.7251L5.86601 11.7095C5.86983 11.7064 5.87335 11.7028 5.87652 11.699C5.72941 11.8617 5.50791 12.084 5.29524 11.889Z" fill="#308D8A"/>
<path d="M22.9244 12.238C22.899 12.207 22.8803 12.1712 22.8693 12.1327C22.8583 12.0942 22.8552 12.0539 22.8603 12.0142C22.8654 11.9745 22.8786 11.9363 22.899 11.9018C22.9194 11.8674 22.9467 11.8374 22.979 11.8139C24.1386 10.5446 25.2647 9.25007 26.4844 8.03585C26.5928 7.88744 26.8559 7.87108 26.9538 8.04801C27.0513 8.20815 26.9664 8.37498 26.845 8.49266C26.573 8.7978 26.2658 9.0681 25.9867 9.36648C25.2722 10.1041 24.5997 10.8758 23.9272 11.65C23.6482 11.8715 23.3321 12.5923 22.9244 12.238Z" fill="#308D8A"/>
<path d="M9.33693 8.42074C9.26603 8.4174 9.19897 8.38775 9.14884 8.33747C9.09878 8.28727 9.06934 8.22007 9.06621 8.14924C9.0655 8.10878 9.07325 8.06867 9.08896 8.03141C9.10468 7.99415 9.128 7.96058 9.15744 7.93292C9.18695 7.90519 9.2218 7.88392 9.25999 7.87056C9.2981 7.85712 9.33863 7.85185 9.37895 7.85498C9.74375 7.80584 10.0695 7.77512 10.4297 7.75536C15.7579 7.38807 21.1239 7.53939 26.4458 7.81552C26.6021 7.80286 26.74 7.94579 26.7425 8.09712C26.7333 8.50686 26.2436 8.38078 25.9747 8.37872C20.4447 8.09079 14.8626 7.93363 9.33693 8.42074Z" fill="#308D8A"/>
<path d="M22.5911 12.4736C22.5041 12.4702 22.423 12.4669 22.3549 12.4736C19.2787 12.3009 16.1886 12.3223 13.1019 12.3433C10.9054 12.3588 8.71017 12.3731 6.52502 12.3194C6.44346 12.2746 6.3547 12.2446 6.26276 12.2306C6.12571 12.1842 5.98516 12.1488 5.84245 12.1247C5.78739 12.113 5.73192 12.1025 5.67686 12.092C5.65458 12.0836 5.63482 12.0768 5.61212 12.0697C5.53633 12.0454 5.45719 12.033 5.37759 12.0332C5.37297 12.0332 5.36794 12.0332 5.36331 12.031C5.36761 12.032 5.37196 12.0327 5.37634 12.0332H5.37171C5.3083 12.0222 5.24431 12.0149 5.18005 12.0112C5.18532 11.9716 5.19937 11.9335 5.22118 11.9C5.24299 11.8663 5.27201 11.838 5.30615 11.8171C5.49276 11.6856 5.72646 11.6809 5.94375 11.7103C6.85119 11.8276 7.75984 11.802 8.67106 11.7772C9.21748 11.7633 9.7639 11.7481 10.3102 11.7646C11.5792 11.789 12.8497 11.7784 14.1203 11.7679C15.7074 11.7549 17.2961 11.7423 18.8823 11.7994C19.5914 11.7868 20.3017 11.8137 21.0108 11.8414C21.6471 11.8671 22.2834 11.8919 22.9189 11.8885C22.9583 11.8781 22.9994 11.8759 23.0396 11.882C23.0799 11.8881 23.1185 11.9024 23.1529 11.9241C23.1874 11.9458 23.2171 11.9743 23.24 12.008C23.2629 12.0417 23.2786 12.0797 23.2862 12.1197C23.3047 12.4332 23.0383 12.4795 22.763 12.4795C22.7067 12.4778 22.6478 12.4757 22.5911 12.4736Z" fill="#308D8A"/>
<path d="M6.15466 12.2139H6.18237C6.17433 12.217 6.16404 12.217 6.15466 12.2139Z" fill="#308D8A"/>
<path d="M5.61291 12.0678C5.53719 12.0432 5.458 12.0309 5.37839 12.0316C5.37377 12.0316 5.36873 12.0316 5.36411 12.0291C5.36873 12.0291 5.37377 12.0291 5.37713 12.0316H5.37251C5.29553 12.0164 5.21729 12.0085 5.13883 12.008H5.11487C5.08916 11.952 5.07948 11.8899 5.0869 11.8288C5.09431 11.7675 5.11854 11.7096 5.1569 11.6613C5.25903 11.531 5.34015 11.3326 5.53138 11.3289C5.84828 11.3313 5.90123 11.6928 5.6995 11.8832C5.70398 11.9176 5.70149 11.9525 5.69217 11.9859C5.68286 12.0192 5.66691 12.0504 5.64528 12.0774L5.61291 12.0678Z" fill="#308D8A"/>
<path d="M6.75823 12.3719C6.49092 12.3643 6.2089 12.3403 5.94832 12.3365C5.6705 12.3097 5.35529 12.3878 5.10143 12.2525C4.70929 11.9781 5.34435 11.1858 5.69446 11.2614C5.91638 11.3106 6.01136 11.6174 5.81844 11.7628C6.15468 11.7713 6.47874 11.7864 6.81455 11.8048C7.18144 11.8469 7.1264 12.4 6.75823 12.3719Z" fill="#308D8A"/>
<path d="M22.5301 14.3575C17.0031 14.1453 11.4723 14.3516 5.94326 14.2865C5.59398 14.2726 5.58095 13.7346 5.94326 13.7219C11.6119 13.767 17.2814 13.5959 22.9475 13.7913C23.3115 13.7829 23.3409 14.3428 22.9664 14.3587C22.8197 14.363 22.6739 14.3617 22.5301 14.3575Z" fill="#308D8A"/>
<path d="M26.04 18.4691C22.7318 18.3068 19.4085 18.3947 16.0927 18.3518C14.8259 18.3333 13.5671 18.2576 12.3016 18.293C11.4 18.2787 10.4914 18.467 9.5953 18.4035C9.26534 18.3152 9.3351 17.8218 9.68774 17.8458C11.5102 17.786 13.3402 17.6289 15.1672 17.7688C17.5869 17.8054 20.0078 17.7688 22.4279 17.8281C23.6468 17.8382 24.8703 17.7835 26.0845 17.9025C26.3368 17.9105 26.7423 17.826 26.7676 18.1791C26.7575 18.567 26.2955 18.4682 26.0316 18.4691H26.04Z" fill="#308D8A"/>
<path d="M9.38591 18.3246L9.36152 18.3036L9.34978 18.2944C9.3628 18.3045 9.37624 18.3158 9.39181 18.3259C7.9329 17.1638 6.78594 15.6881 5.53386 14.3225C5.23461 14.0867 5.58513 13.65 5.86715 13.8631C6.96246 14.9613 7.85894 16.239 9.04166 17.2503C9.28543 17.4941 9.55067 17.7034 9.80113 17.9299C10.0256 18.1927 9.64106 18.5634 9.38591 18.3246Z" fill="#308D8A"/>
<path d="M26.4638 18.4505C26.4155 18.4392 26.3708 18.4155 26.3343 18.3819C26.2978 18.3483 26.2706 18.3057 26.2554 18.2585C26.2403 18.2112 26.2376 18.1608 26.2477 18.1121C26.2577 18.0635 26.2802 18.0183 26.3129 17.981C25.2878 16.6848 24.0833 15.5336 22.864 14.4239C22.3075 14.2339 22.864 13.5194 23.2338 13.9877C24.4413 15.0363 25.5666 16.1758 26.6 17.3963C26.7593 17.5821 26.8522 17.738 26.9842 17.9293C27.1426 18.2592 26.7753 18.5374 26.4638 18.4505Z" fill="#308D8A"/>
<path d="M9.46332 20.5061C9.39064 20.4878 9.32792 20.4419 9.28867 20.378C9.24934 20.3142 9.23661 20.2374 9.25318 20.1643C9.29521 19.9764 9.47889 19.9302 9.64906 19.9541C9.87434 19.9128 10.1016 19.8835 10.3299 19.8663C15.6636 19.5595 21.0326 19.8074 26.3814 19.7797C26.7307 19.7902 26.7475 20.3316 26.3835 20.3442C20.7472 20.3913 15.0655 20.0735 9.46332 20.5061Z" fill="#308D8A"/>
<path d="M5.9828 24.4553C5.58435 24.5124 5.48137 23.9277 5.89874 23.8895C6.52246 23.9277 7.13653 23.8685 7.75818 23.8424C12.8682 23.7642 17.9799 23.8567 23.0908 23.8882C23.4102 23.958 23.3538 24.4557 23.0273 24.4485C17.328 24.4334 11.6371 24.3069 5.94329 24.4532L5.9828 24.4553Z" fill="#308D8A"/>
<path d="M22.9503 24.2724C22.6376 24.03 22.9924 23.7231 23.1849 23.542C23.1786 23.5487 23.1718 23.5546 23.1656 23.5605C24.2231 22.4219 25.1566 21.1689 26.2541 20.0685C26.281 19.7297 26.8135 19.7453 26.8164 20.0878C26.8201 20.1646 26.8057 20.2412 26.7743 20.3114C26.7429 20.3816 26.6954 20.4434 26.6357 20.4918C25.753 21.3631 25.0115 22.3634 24.176 23.2793C23.9087 23.6012 23.6178 23.9098 23.3396 24.22C23.2926 24.2751 23.2268 24.311 23.155 24.3207C23.0832 24.3303 23.0103 24.3132 22.9503 24.2724Z" fill="#308D8A"/>
<path d="M5.66673 24.2647C5.1859 24.0428 5.65118 23.6074 5.87688 23.3952C6.50398 22.6941 7.15882 21.9695 7.8481 21.339C8.27847 20.9011 8.73074 20.4888 9.1889 20.0819C9.27296 20.0025 9.38055 19.918 9.49909 19.9197C9.81134 19.9075 9.90087 20.3652 9.60498 20.4699C8.34403 21.5698 7.18741 22.7891 6.07063 24.0197C5.97228 24.1643 5.88193 24.3333 5.66673 24.2647Z" fill="#308D8A"/>
<path d="M9.2907 20.1835C15.0073 19.6967 20.8017 20.0394 26.5529 20.0014C25.5203 21.227 24.6099 22.5827 23.5902 23.8248L23.5862 23.8294C23.4863 23.9339 23.3553 24.0725 23.2837 24.2176C17.9833 24.1785 12.6806 24.0725 7.38137 24.1645C6.82422 24.191 6.27591 24.2456 5.71875 24.2346C6.84854 22.8303 8.01902 21.4412 9.2907 20.1835Z" fill="#308D8A"/>
<path d="M26.6499 18.1265C26.59 18.1265 26.5327 18.1308 26.4811 18.1294C25.2171 17.993 23.9453 18.0557 22.6773 18.0437C20.1603 17.9772 17.6415 18.0184 15.1245 17.9772C13.23 17.818 11.3321 17.9945 9.44065 18.0624C9.20983 17.841 8.97196 17.632 8.74945 17.3867C7.67603 16.3824 6.8296 15.1476 5.87341 14.0176C11.5096 14.0802 17.1475 13.8612 22.7815 14.0965C22.8549 14.0988 22.9292 14.1003 23.0027 14.1003C23.0416 14.1313 23.0848 14.1552 23.1308 14.1711C24.3707 15.4068 25.5984 16.688 26.6499 18.1265Z" fill="#308D8A"/>
<path d="M26.6549 8.21904C26.706 8.21904 26.7653 8.22416 26.8263 8.22921C25.6628 9.45432 24.5742 10.7453 23.4546 12.0116C23.4247 12.0331 23.3991 12.0603 23.3792 12.0918C22.7058 12.096 22.0298 12.0686 21.3542 12.0403C20.5969 12.0093 19.8378 11.9791 19.0805 11.994C17.3864 11.9304 15.69 11.9448 13.9945 11.9591C12.6374 11.9707 11.2809 11.9824 9.92519 11.955C9.34158 11.9369 8.75804 11.955 8.17444 11.9694C7.20121 11.9968 6.23069 12.0251 5.26106 11.8956C5.23727 11.8914 5.21618 11.8891 5.19104 11.8863C5.19374 11.8826 5.19598 11.8775 5.19867 11.8733C6.40487 10.625 7.616 9.36749 8.94428 8.26079C14.8262 7.72902 20.7662 7.90253 26.6549 8.21904Z" fill="#308D8A"/>
</g>
</g>
<defs>
<clipPath id="clip0_5181_9971">
<rect width="32" height="32" fill="white"/>
</clipPath>
<clipPath id="clip1_5181_9971">
<rect width="32" height="32" fill="white"/>
</clipPath>
</defs>
</svg>
