<svg width="32" height="32" viewBox="0 0 32 32" fill="none" xmlns="http://www.w3.org/2000/svg">
<g clip-path="url(#clip0_5946_6460)">
<g clip-path="url(#clip1_5946_6460)">
<mask id="mask0_5946_6460" style="mask-type:luminance" maskUnits="userSpaceOnUse" x="0" y="0" width="32" height="32">
<path d="M32 0H0V32H32V0Z" fill="white"/>
</mask>
<g mask="url(#mask0_5946_6460)">
<mask id="mask1_5946_6460" style="mask-type:alpha" maskUnits="userSpaceOnUse" x="-8" y="0" width="41" height="40">
<path fill-rule="evenodd" clip-rule="evenodd" d="M26.3114 22.1424C29.7784 20.0689 32.1 16.2775 32.1 11.9438C32.1 5.38556 26.7835 0.0690918 20.2254 0.0690918C15.5965 0.0690918 11.5862 2.7176 9.62731 6.58189L-7.08191 23.2911L9.04035 39.4135L26.3114 22.1424Z" fill="#795E5E"/>
</mask>
<g mask="url(#mask1_5946_6460)">
<path fill-rule="evenodd" clip-rule="evenodd" d="M20.0267 -0.790273L20.0329 -0.796631C18.161 -0.761549 16.3529 -0.257233 14.7979 0.729056C13.6318 1.96896 12.4906 3.23385 11.3862 4.53339C10.1839 5.94506 9.02409 7.39513 7.9208 8.89339C7.51033 9.45615 7.10595 10.0271 6.72416 10.6206C7.3177 10.2388 7.88862 9.83443 8.45137 9.42396C9.11529 8.93373 9.77074 8.43293 10.4167 7.92261C13.5738 5.43167 16.532 2.7043 19.3734 -0.125223C19.5916 -0.34579 19.8086 -0.567521 20.0267 -0.790273ZM18.6269 6.61995C20.733 4.49003 22.8197 2.33437 24.8473 0.125927C24.0007 -0.219492 23.1317 -0.468762 22.2616 -0.619351C20.385 1.12875 18.5443 2.91477 16.7235 4.71653C14.6285 6.83057 12.5542 8.9715 10.5389 11.1653C7.61648 14.3422 4.81247 17.6292 2.23446 21.109C5.37801 18.7791 8.36615 16.2668 11.255 13.6469C13.7727 11.3671 16.2174 9.00801 18.6269 6.61995ZM28.4622 2.3261C25.4897 5.61733 22.4072 8.80683 19.2876 11.955C17.4161 13.8122 15.5304 15.6551 13.6172 17.4684C9.43815 21.4309 5.12904 25.257 0.555664 28.7836C4.16282 24.1057 8.08371 19.7042 12.1433 15.4352C13.8701 13.6204 15.6206 11.8295 17.3842 10.0516C20.4544 7.00995 23.5646 4.00209 26.7683 1.09815C27.354 1.4571 27.9208 1.86582 28.4622 2.3261ZM31.2593 5.54853C30.8963 4.96707 30.4824 4.4055 30.0192 3.86947C26.7258 6.84395 23.5332 9.92951 20.3829 13.0512C18.5247 14.9237 16.6797 16.8115 14.8643 18.7269C10.9029 22.9048 7.07999 27.213 3.55437 31.7832C8.22372 28.1822 12.6192 24.2697 16.8809 20.2173C18.7029 18.4833 20.5012 16.7255 22.2863 14.9546C25.3353 11.8772 28.3494 8.76072 31.2593 5.54853ZM32.2448 7.45743C32.5973 8.29229 32.8546 9.15073 33.0156 10.0104C31.2491 11.9102 29.44 13.7716 27.6176 15.6154C25.4828 17.7312 23.3199 19.8251 21.1031 21.8611C17.947 24.7627 14.6806 27.5437 11.2252 30.1045C13.5438 26.9745 16.0448 24.0001 18.6533 21.1227C20.9422 18.5911 23.3137 16.134 25.7143 13.712C27.8555 11.5944 30.0226 9.49633 32.2448 7.45743ZM31.9321 17.226C32.7893 15.7123 33.216 13.9888 33.2218 12.2104C32.9655 12.4595 32.7106 12.7098 32.4577 12.9602C29.5958 15.8339 26.8399 18.8256 24.326 22.0223C23.8445 22.6347 23.3724 23.2543 22.9086 23.8823C22.497 24.446 22.0937 25.0159 21.7119 25.6095C22.3055 25.2277 22.8764 24.8233 23.4391 24.4128C24.8157 23.3979 26.1536 22.336 27.4579 21.2363C28.9913 19.9457 30.479 18.6031 31.9321 17.226Z" fill="url(#paint0_linear_5946_6460)"/>
</g>
</g>
</g>
</g>
<defs>
<linearGradient id="paint0_linear_5946_6460" x1="26.869" y1="71.8509" x2="66.1099" y2="25.0941" gradientUnits="userSpaceOnUse">
<stop stop-color="#FF2189"/>
<stop offset="1" stop-color="#FF9D00"/>
</linearGradient>
<clipPath id="clip0_5946_6460">
<rect width="32" height="32" fill="white"/>
</clipPath>
<clipPath id="clip1_5946_6460">
<rect width="32" height="32" fill="white"/>
</clipPath>
</defs>
</svg>
