<svg width="32" height="32" viewBox="0 0 32 32" fill="none" xmlns="http://www.w3.org/2000/svg">
<path fill-rule="evenodd" clip-rule="evenodd" d="M3.78457 25.6782H21.7323C22.7989 25.6782 23.6107 24.4102 22.9964 23.4891L14.034 7.89559C13.3792 6.76726 12.1376 6 10.7154 6C9.22536 6 7.91591 6.85752 7.28379 8.12126L0.465959 19.9462C-0.922412 22.4244 0.970475 25.6782 3.78457 25.6782Z" fill="#0043FF"/>
<path fill-rule="evenodd" clip-rule="evenodd" d="M17.9169 11.7552C16.8558 9.92726 17.4879 7.58032 19.3166 6.51969C21.1452 5.45906 23.493 6.09093 24.5541 7.91883L31.4849 19.9243C32.5459 21.7522 31.9137 24.0991 30.0851 25.1597C28.2565 26.2204 25.9086 25.5885 24.8475 23.7606L17.9169 11.7552Z" fill="#0043FF"/>
</svg>
