<svg width="32" height="32" viewBox="0 0 32 32" fill="none" xmlns="http://www.w3.org/2000/svg">
<g clip-path="url(#clip0_4072_10310)">
<path d="M31.9339 15.9228L29.4867 14.5113C28.7923 8.19298 23.7768 3.16472 17.4605 2.47002L16.0606 0.0661614C16.0055 -0.0220538 15.8842 -0.0220538 15.8291 0.0661614L14.4512 2.47002C8.10197 3.15369 3.06442 8.21504 2.39201 14.5775L0.0661386 15.9228C-0.0220462 15.9779 -0.0220462 16.0992 0.0661386 16.1433L2.40304 17.4886C3.08647 23.8291 8.12402 28.8684 14.4623 29.552L15.8401 31.9338C15.8953 32.0221 16.0165 32.0221 16.0716 31.9338L17.4495 29.552C23.7657 28.8684 28.7813 23.8622 29.4867 17.5548L31.9339 16.1323C32.022 16.0992 32.022 15.9669 31.9339 15.9228ZM15.9394 4.33357C16.3362 4.62027 16.744 4.91799 17.1519 5.20469C17.1409 5.66782 17.1409 6.11993 17.1298 6.58306C16.3693 6.58306 15.5976 6.58306 14.837 6.59408C14.837 6.13095 14.826 5.66782 14.826 5.21572C15.1898 4.91799 15.5646 4.6313 15.9394 4.33357ZM3.85808 16.011C3.85808 15.0406 3.96831 14.1034 4.18878 13.1881C4.80607 11.3356 5.78713 10.0344 6.44851 9.28465C6.28316 9.75876 5.78713 11.3466 6.44851 13.1661C7.26422 15.4376 9.23735 16.3528 9.59009 16.5182C7.6831 16.5072 5.7761 16.4852 3.86911 16.4741C3.86911 16.3198 3.85808 16.1654 3.85808 16.011ZM13.4481 18.2054C13.1395 18.8339 12.4891 18.9772 12.4009 18.9993C12.0151 19.3301 11.2656 20.0689 10.9569 21.2488C10.2956 23.785 12.3679 25.836 12.4671 25.9242C11.7285 25.8249 8.58699 25.3067 6.44851 22.5279C5.29109 21.0282 4.90528 19.4845 4.76198 18.6023C5.15881 18.9111 5.73201 19.2639 6.4926 19.4183C8.89564 19.8925 10.8026 17.8635 10.9569 17.6871C10.9459 17.6209 10.8357 16.9262 11.3207 16.4631C11.8057 16 12.6324 16.0551 13.1285 16.4962C13.6355 16.9483 13.7127 17.6761 13.4481 18.2054ZM17.1519 27.3577C16.7992 27.8759 16.1708 27.898 16.0716 27.909C15.9724 27.909 15.2449 27.9311 14.8481 27.3356C14.5725 26.9166 14.5615 26.3763 14.815 25.9242C14.826 25.9021 14.9142 25.8139 14.8922 25.6706C14.8811 25.5823 14.837 25.5272 14.815 25.4941V12.4383C15.5866 12.4383 16.3582 12.4493 17.1298 12.4493C17.1298 16.7829 17.1188 21.1165 17.1188 25.45C17.1078 25.45 17.0086 25.5272 17.0086 25.6485C17.0086 25.7808 17.1078 25.858 17.1188 25.858C17.4275 26.3432 17.4385 26.9276 17.1519 27.3577ZM17.196 10.8945C16.4023 10.8945 15.5976 10.8835 14.804 10.8835C14.6607 10.8725 14.4512 10.8725 14.2087 10.8945C12.9741 11.0379 12.1695 11.8539 11.96 12.0634C11.1553 12.9014 10.9459 13.8608 10.8908 14.2467C10.6483 14.0262 8.66415 12.1847 8.85155 9.27362C8.99485 7.10132 10.2515 5.68988 10.9569 5.03929C11.4419 6.77051 13.0293 8.04963 14.9142 8.04963H16.9865C18.8825 8.04963 20.4809 6.77051 20.9549 5.01724C21.2856 5.31496 22.8839 6.81462 23.0272 9.3067C23.1925 12.1185 21.3627 13.949 21.0982 14.2136C21.0541 13.8828 20.8887 12.8353 19.9958 11.9641C19.2022 11.1923 18.2983 11.0158 18.0117 10.9607C17.692 10.8945 17.4054 10.8835 17.196 10.8945ZM25.5625 22.5389C25.331 22.8477 24.1736 24.2922 22.0792 25.2185C21.0761 25.6595 20.1722 25.847 19.5439 25.9352C19.9077 25.5934 20.6021 24.8435 20.9438 23.6637C21.0761 23.2226 21.3296 22.3404 21.0541 21.2488C20.7344 20.0027 19.9297 19.2639 19.61 18.9993C18.9487 18.8339 18.4747 18.2936 18.4195 17.6871C18.4195 17.643 18.3644 16.9703 18.8825 16.5182C19.3234 16.1323 20.084 15.989 20.6021 16.408C20.9659 16.7057 21.1312 17.2019 21.043 17.6981C21.2084 17.8856 23.1044 19.8925 25.5074 19.4293C26.268 19.286 26.8522 18.9331 27.238 18.6244C27.1168 19.4293 26.753 20.9952 25.5625 22.5389ZM28.0096 16.5072C26.0916 16.5072 24.1736 16.5072 22.2556 16.4962C22.5973 16.3528 24.6145 15.4376 25.4302 13.144C26.0696 11.3356 25.5735 9.78081 25.4082 9.3067C26.0365 9.95724 27.0837 11.2253 27.6789 13.144C27.6789 13.144 27.6789 13.144 27.6789 13.155C27.8994 14.0813 28.0207 15.0406 28.0207 16.011C28.0207 16.1764 28.0207 16.3418 28.0096 16.5072Z" fill="url(#paint0_linear_4072_10310)"/>
</g>
<defs>
<linearGradient id="paint0_linear_4072_10310" x1="16" y1="0" x2="16" y2="32" gradientUnits="userSpaceOnUse">
<stop offset="0.610313" stop-color="#F3F3F3"/>
<stop offset="1" stop-color="#636363"/>
</linearGradient>
<clipPath id="clip0_4072_10310">
<rect width="32" height="32" fill="white"/>
</clipPath>
</defs>
</svg>
