<svg width="32" height="32" viewBox="0 0 32 32" fill="none" xmlns="http://www.w3.org/2000/svg">
<path d="M20.0814 11.3228H11.9786C11.6346 11.3228 11.3527 11.6047 11.3527 11.9487V20.0515C11.3527 20.3955 11.6346 20.6774 11.9786 20.6774H20.0814C20.4254 20.6774 20.7073 20.3955 20.7073 20.0515V11.9487C20.7073 11.6047 20.4254 11.3228 20.0814 11.3228Z" fill="white"/>
<path d="M10.7288 2H2.62591C2.28196 2 2 2.28196 2 2.62591V10.7288C2 11.0727 2.28196 11.3547 2.62591 11.3547H10.7288C11.0727 11.3547 11.3547 11.0727 11.3547 10.7288V2.62591C11.3527 2.28196 11.0727 2 10.7288 2Z" fill="white"/>
<path d="M29.404 2H21.3012C20.9573 2 20.6753 2.28196 20.6753 2.62591V10.7288C20.6753 11.0727 20.9573 11.3547 21.3012 11.3547H29.404C29.748 11.3547 30.03 11.0727 30.03 10.7288V2.62591C30.03 2.28196 29.748 2 29.404 2Z" fill="white"/>
<path d="M10.7288 20.6453H2.62591C2.28196 20.6453 2 20.9272 2 21.2712V29.374C2 29.718 2.28196 29.9999 2.62591 29.9999H10.7288C11.0727 29.9999 11.3547 29.718 11.3547 29.374V21.2712C11.3527 20.9272 11.0727 20.6453 10.7288 20.6453Z" fill="white"/>
<path d="M29.404 20.6453H21.3012C20.9573 20.6453 20.6753 20.9272 20.6753 21.2712V29.374C20.6753 29.718 20.9573 29.9999 21.3012 29.9999H29.404C29.748 29.9999 30.03 29.718 30.03 29.374V21.2712C30.03 20.9272 29.748 20.6453 29.404 20.6453Z" fill="white"/>
</svg>
