<svg width="20" height="20" viewBox="0 0 20 20" fill="none" xmlns="http://www.w3.org/2000/svg">
<g clip-path="url(#clip0_6480_13102)">
<path d="M16.7869 13.2074L13.5393 11.3324L14.5087 9.65337C14.9508 8.92261 15.5842 8.32653 16.3404 7.92952C17.1238 7.49107 17.7231 6.78506 18.0284 5.9408C18.3337 5.09654 18.3247 4.17054 18.0029 3.3324C17.772 2.72497 17.3872 2.188 16.8862 1.7742C16.3851 1.36039 15.7851 1.08396 15.145 0.972033C14.5048 0.860105 13.8466 0.916526 13.2349 1.13576C12.6231 1.35499 12.0789 1.7295 11.6556 2.22254C11.0572 2.91335 10.7366 3.80178 10.7561 4.71554C10.7956 5.54429 10.6071 6.36799 10.2111 7.09708L9.20918 8.83238L5.96159 6.95738C5.67448 6.79162 5.33329 6.7467 5.01306 6.8325C4.69284 6.91831 4.41982 7.12781 4.25406 7.41491L3.00406 9.57997C2.8388 9.8672 2.79416 10.2082 2.87993 10.5283C2.96569 10.8484 3.17486 11.1214 3.46159 11.2875L2.83659 12.37C2.67133 12.6573 2.62669 12.9983 2.71246 13.3184C2.79822 13.6384 3.00739 13.9115 3.29412 14.0776L11.9544 19.0776C12.2416 19.2428 12.5826 19.2875 12.9027 19.2017C13.2228 19.1159 13.4958 18.9068 13.6619 18.62L14.2869 17.5375C14.5741 17.7028 14.9151 17.7474 15.2352 17.6616C15.5553 17.5759 15.8283 17.3667 15.9944 17.08L17.2444 14.9149C17.4102 14.6278 17.4551 14.2866 17.3693 13.9664C17.2835 13.6462 17.074 13.3731 16.7869 13.2074ZM12.6083 3.0324C12.8458 2.75491 13.1412 2.53284 13.4738 2.3818C13.8063 2.23076 14.168 2.15442 14.5332 2.15815C14.8984 2.16189 15.2584 2.24561 15.5878 2.40342C15.9172 2.56123 16.208 2.7893 16.4398 3.07158C16.6715 3.35386 16.8387 3.68351 16.9293 4.03732C17.02 4.39113 17.0321 4.76051 16.9647 5.11948C16.8972 5.47845 16.752 5.81829 16.5391 6.11509C16.3262 6.41189 16.0509 6.65844 15.7325 6.83739C14.9519 7.26145 14.2729 7.85025 13.7425 8.56294L11.5092 7.27357C11.8649 6.46092 12.0347 5.57917 12.0063 4.69258C11.9948 4.08379 12.2093 3.49233 12.6083 3.0324ZM13.0818 9.62485L12.4568 10.7074L10.2917 9.45738L10.9167 8.37485L13.0818 9.62485ZM12.5794 17.995L3.91912 12.995L4.54412 11.9125L13.2044 16.9125L12.5794 17.995ZM4.08659 10.205L5.33659 8.03991L16.1619 14.2899L14.9119 16.455L4.08659 10.205Z" fill="white"/>
<path fill-rule="evenodd" clip-rule="evenodd" d="M16.3404 7.92952C15.5842 8.32653 14.9508 8.92261 14.5087 9.65337L13.5393 11.3324L16.7869 13.2074C17.074 13.3731 17.2835 13.6462 17.3693 13.9664C17.4551 14.2866 17.4102 14.6278 17.2445 14.9149L15.9945 17.08C15.8283 17.3667 15.5553 17.5759 15.2352 17.6616C14.9152 17.7474 14.5741 17.7028 14.2869 17.5375L13.6619 18.62C13.4958 18.9068 13.2228 19.1159 12.9027 19.2017C12.5826 19.2875 12.2416 19.2428 11.9544 19.0776L3.29414 14.0776C3.00741 13.9115 2.79824 13.6384 2.71248 13.3184C2.62671 12.9983 2.67135 12.6573 2.83661 12.37L3.46161 11.2875C3.17488 11.1214 2.96571 10.8484 2.87995 10.5283C2.79418 10.2082 2.83882 9.86719 3.00408 9.57997L4.25408 7.41491C4.41984 7.1278 4.69286 6.91831 5.01308 6.8325C5.33331 6.7467 5.6745 6.79162 5.96161 6.95738L9.2092 8.83238L10.2111 7.09708C10.6071 6.36799 10.7956 5.54428 10.7561 4.71553C10.7366 3.80178 11.0572 2.91335 11.6556 2.22254C12.0789 1.7295 12.6232 1.35499 13.2349 1.13576C13.8466 0.916524 14.5049 0.860103 15.145 0.972031C15.7851 1.08396 16.3851 1.36039 16.8862 1.7742C17.3872 2.188 17.7721 2.72497 18.003 3.3324C18.3247 4.17054 18.3338 5.09654 18.0284 5.9408C17.7231 6.78506 17.1238 7.49107 16.3404 7.92952ZM18.1431 3.27887C18.4777 4.15061 18.487 5.11372 18.1695 5.99181C17.8519 6.86999 17.2286 7.60436 16.4137 8.06041L16.4102 8.06238C15.6786 8.44645 15.0658 9.02293 14.6378 9.72971L13.7442 11.2775L16.8619 13.0775C17.1835 13.2631 17.4181 13.5689 17.5142 13.9276C17.6103 14.2862 17.56 14.6684 17.3744 14.9899L16.1244 17.155C15.9383 17.4761 15.6325 17.7105 15.2741 17.8065C14.9642 17.8896 14.6368 17.8634 14.3459 17.7353L13.7918 18.695C13.6058 19.0161 13.3 19.2505 12.9415 19.3466C12.5831 19.4426 12.2012 19.3926 11.8796 19.2076L3.21914 14.2075C2.89806 14.0215 2.66363 13.7156 2.56759 13.3572C2.47155 12.9988 2.52154 12.6169 2.70659 12.2952L3.26082 11.3353C3.0044 11.1475 2.81809 10.877 2.73506 10.5671C2.63902 10.2087 2.689 9.8268 2.87406 9.50517L4.12417 7.33991C4.30982 7.01835 4.61561 6.78371 4.97426 6.68761C5.33291 6.59151 5.71505 6.64182 6.03661 6.82747L9.1543 8.62747L10.0802 7.02378C10.4625 6.31921 10.6444 5.52338 10.6063 4.72267L10.6061 4.71873C10.5858 3.76791 10.9194 2.84343 11.5421 2.12455C11.9823 1.61192 12.5482 1.22252 13.1843 0.994551C13.8205 0.766544 14.5051 0.707866 15.1708 0.824273C15.8366 0.94068 16.4606 1.22817 16.9817 1.65854C17.5027 2.08885 17.9029 2.64723 18.1431 3.27887ZM12.7223 3.12993L12.7216 3.1307C12.3471 3.56236 12.1458 4.1174 12.1563 4.68876C12.1838 5.55253 12.0278 6.4118 11.6992 7.21002L13.7031 8.36699C14.2337 7.68484 14.8998 7.11923 15.6599 6.70612C15.9589 6.53794 16.2173 6.30637 16.4172 6.02766C16.6173 5.74867 16.7539 5.42922 16.8173 5.09179C16.8806 4.75436 16.8693 4.40714 16.7841 4.07456C16.6988 3.74198 16.5417 3.43211 16.3239 3.16676C16.106 2.90142 15.8326 2.68703 15.523 2.53869C15.2134 2.39035 14.875 2.31166 14.5317 2.30814C14.1884 2.30463 13.8484 2.37639 13.5358 2.51837C13.2232 2.66035 12.9456 2.8691 12.7223 3.12993ZM15.7325 6.83739C14.9519 7.26145 14.2729 7.85025 13.7425 8.56294L11.5093 7.27356C11.8649 6.46092 12.0347 5.57917 12.0064 4.69257C11.9949 4.08379 12.2093 3.49233 12.6083 3.0324C12.8458 2.75491 13.1413 2.53284 13.4738 2.3818C13.8064 2.23076 14.168 2.15442 14.5332 2.15815C14.8984 2.16189 15.2584 2.2456 15.5878 2.40341C15.9172 2.56122 16.208 2.78929 16.4398 3.07158C16.6716 3.35386 16.8387 3.68351 16.9294 4.03732C17.02 4.39113 17.0321 4.76051 16.9647 5.11948C16.8973 5.47845 16.752 5.81829 16.5391 6.11509C16.3263 6.41189 16.0509 6.65843 15.7325 6.83739ZM12.4019 10.5025L12.8769 9.67975L10.9716 8.57975L10.4966 9.40247L12.4019 10.5025ZM4.12404 12.9401L12.5245 17.7901L12.9995 16.9674L4.59904 12.1174L4.12404 12.9401ZM5.39151 8.24481L4.29151 10.1501L14.857 16.2501L15.957 14.3448L5.39151 8.24481ZM13.0818 9.62484L10.9167 8.37485L10.2917 9.45738L12.4568 10.7074L13.0818 9.62484ZM12.5794 17.995L13.2044 16.9125L4.54414 11.9125L3.91914 12.995L12.5794 17.995ZM4.08661 10.205L14.9119 16.455L16.1619 14.2899L5.33661 8.03991L4.08661 10.205Z" fill="white"/>
</g>
<defs>
<clipPath id="clip0_6480_13102">
<rect width="20" height="20" fill="white"/>
</clipPath>
</defs>
</svg>
