<svg width="32" height="32" viewBox="0 0 32 32" fill="none" xmlns="http://www.w3.org/2000/svg">
<g clip-path="url(#clip0_5630_23217)">
<path fill-rule="evenodd" clip-rule="evenodd" d="M10.3156 27.9999C5.17075 27.9999 1 23.881 1 18.8C1 14.3953 4.13429 10.7135 8.32037 9.81148C10.4329 6.8983 13.8889 5 17.7939 5C23.8127 5 28.765 9.51 29.375 15.2949C30.979 16.612 32 18.5977 32 20.8188C32 24.7849 28.7446 28 24.7287 28C24.7261 28 24.7234 27.9999 24.7208 27.9999H17.8068C17.8025 28 17.7981 28 17.7939 28C17.7895 28 17.7852 28 17.7808 27.9999H10.3156ZM23.3447 14.3155C24.4488 14.3155 25.3439 13.4315 25.3439 12.3411C25.3439 11.2507 24.4488 10.3667 23.3447 10.3667C22.2406 10.3667 21.3455 11.2507 21.3455 12.3411C21.3455 13.4315 22.2406 14.3155 23.3447 14.3155ZM15.3484 14.3155C16.4525 14.3155 17.3476 13.4315 17.3476 12.3411C17.3476 11.2507 16.4525 10.3667 15.3484 10.3667C14.2442 10.3667 13.3492 11.2507 13.3492 12.3411C13.3492 13.4315 14.2442 14.3155 15.3484 14.3155ZM22.9871 16.1035C23.7462 15.9979 24.3868 15.9089 24.7725 15.9089C25.7188 15.9089 26.4861 16.6666 26.4861 17.6012C26.4861 21.4953 23.2896 24.6522 19.3465 24.6522C15.4034 24.6522 12.2069 21.4953 12.2069 17.6012C12.2069 16.6666 12.9742 15.9089 13.9205 15.9089C14.3062 15.9089 14.9468 15.9979 15.7059 16.1035C16.809 16.2568 18.1623 16.4448 19.3465 16.4448C20.5307 16.4448 21.884 16.2568 22.9871 16.1035ZM19.3462 23.242C20.9109 23.242 22.3288 22.6205 23.3602 21.6139H23.3597C23.8187 21.1659 23.6684 20.3997 23.0761 20.1473C22.0754 19.7208 20.7718 19.4626 19.3459 19.4626C17.9202 19.4626 16.6166 19.7208 15.6159 20.1473C15.0236 20.3997 14.8732 21.1662 15.3323 21.6139C16.364 22.6205 17.7815 23.242 19.3462 23.242Z" fill="#F7F9FB"/>
</g>
<defs>
<clipPath id="clip0_5630_23217">
<rect width="32" height="32" fill="white"/>
</clipPath>
</defs>
</svg>
