<svg width="20" height="20" viewBox="0 0 20 20" fill="none" xmlns="http://www.w3.org/2000/svg">
<g clip-path="url(#clip0_4071_10214)">
<path d="M2.71875 4.71061C2.99588 4.32918 3.30256 3.97011 3.63595 3.63672L3.7478 3.69837L9.94111 9.92496L9.9999 10.0007L2.71875 4.71061Z" fill="url(#paint0_radial_4071_10214)"/>
<path d="M3.63672 3.63656C4.98065 2.29263 6.71557 1.40865 8.59276 1.11133L8.65501 1.28247L10.0007 9.88121V10.0005L3.63672 3.63656Z" fill="url(#paint1_radial_4071_10214)"/>
<path d="M14.0869 1.98242C14.5067 2.19639 14.9091 2.44299 15.2903 2.71996L15.2742 2.86014L10.0326 9.97491L10 10.001L14.0869 1.98242Z" fill="url(#paint2_radial_4071_10214)"/>
<path d="M19 10C19 10.9444 18.8514 11.8829 18.5595 12.7811L18.3467 12.8154L10.0662 10.0337L10 10H19Z" fill="url(#paint3_radial_4071_10214)"/>
<path d="M18.5596 12.781C18.2678 13.6792 17.8364 14.5258 17.2813 15.2899L17.0762 15.2551L10.0425 10.0442L10 10L18.5596 12.781Z" fill="url(#paint4_radial_4071_10214)"/>
<path d="M12.7804 18.5595C11.4296 18.9984 9.99414 19.1114 8.59133 18.8892L8.53516 18.7167L9.95868 10.1531L9.99924 10L12.7804 18.5595Z" fill="url(#paint5_radial_4071_10214)"/>
<path d="M8.59339 18.8892C8.12772 18.8154 7.66858 18.7052 7.22016 18.5595L7.19531 18.3514L9.95 10.0939L10.0013 10L8.59339 18.8892Z" fill="url(#paint6_radial_4071_10214)"/>
<path d="M7.21791 18.5595C6.31969 18.2677 5.47304 17.8363 4.70898 17.2811V17.1183L9.90714 10.0918L9.99904 10L7.21791 18.5595Z" fill="url(#paint7_radial_4071_10214)"/>
<path d="M1.98094 14.0854C1.33614 12.8199 1 11.4198 1 9.9995L1.11513 9.95703H9.70886L10 9.9995L1.98094 14.0854Z" fill="url(#paint8_radial_4071_10214)"/>
<path d="M8.5918 1.11089C9.99483 0.888587 11.4305 1.00155 12.7815 1.44054L10.0002 10L8.5918 1.11089Z" fill="url(#paint9_radial_4071_10214)"/>
<path d="M15.2901 2.71875C16.8277 3.83584 17.9721 5.41097 18.5594 7.21843L10 9.99988L15.2901 2.71875Z" fill="url(#paint10_radial_4071_10214)"/>
<path d="M4.70984 17.2811C3.94579 16.726 3.27387 16.0541 2.71875 15.29L9.9999 10L4.70984 17.2811Z" fill="url(#paint11_radial_4071_10214)"/>
<path d="M1 9.99993C1 9.0555 1.14865 8.11695 1.44049 7.21875L10 9.99993H1Z" fill="url(#paint12_radial_4071_10214)"/>
<path d="M17.2814 15.2897C16.7264 16.0538 16.0545 16.7257 15.2904 17.2809L10 10L17.2814 15.2897Z" fill="url(#paint13_radial_4071_10214)"/>
</g>
<defs>
<radialGradient id="paint0_radial_4071_10214" cx="0" cy="0" r="1" gradientUnits="userSpaceOnUse" gradientTransform="translate(10.0007 10.0009) rotate(-139.191) scale(9.05454 9.05453)">
<stop stop-color="#A273FF"/>
<stop offset="1" stop-color="#4331E9"/>
</radialGradient>
<radialGradient id="paint1_radial_4071_10214" cx="0" cy="0" r="1" gradientUnits="userSpaceOnUse" gradientTransform="translate(10.0006 10) rotate(-98.9946) scale(9.21605 9.21603)">
<stop stop-color="#F7A7F9"/>
<stop offset="1" stop-color="#00DDFB"/>
</radialGradient>
<radialGradient id="paint2_radial_4071_10214" cx="0" cy="0" r="1" gradientUnits="userSpaceOnUse" gradientTransform="translate(9.99998 10.001) scale(9.22255 9.22255)">
<stop stop-color="#FFF3D0"/>
<stop offset="1" stop-color="#FFC044"/>
</radialGradient>
<radialGradient id="paint3_radial_4071_10214" cx="0" cy="0" r="1" gradientUnits="userSpaceOnUse" gradientTransform="translate(9.98393 9.99687) rotate(-90) scale(9.23387 9.23386)">
<stop stop-color="#A273FF"/>
<stop offset="0.5" stop-color="#9FAEFF"/>
<stop offset="1" stop-color="#AAF2E1"/>
</radialGradient>
<radialGradient id="paint4_radial_4071_10214" cx="0" cy="0" r="1" gradientUnits="userSpaceOnUse" gradientTransform="translate(9.99861 9.9992) rotate(35.9904) scale(9.18042 9.18043)">
<stop stop-color="#0075FF"/>
<stop offset="1" stop-color="#00DDFB"/>
</radialGradient>
<radialGradient id="paint5_radial_4071_10214" cx="0" cy="0" r="1" gradientUnits="userSpaceOnUse" gradientTransform="translate(9.99896 10.0005) rotate(90) scale(9.21422 9.2142)">
<stop offset="9.58467e-09" stop-color="#FFCD6B"/>
<stop offset="1" stop-color="#EB5EDF"/>
</radialGradient>
<radialGradient id="paint6_radial_4071_10214" cx="0" cy="0" r="1" gradientUnits="userSpaceOnUse" gradientTransform="translate(10.0012 9.99909) rotate(90) scale(9.2333 9.23328)">
<stop stop-color="#D4FAFF"/>
<stop offset="1" stop-color="#00DDFB"/>
</radialGradient>
<radialGradient id="paint7_radial_4071_10214" cx="0" cy="0" r="1" gradientUnits="userSpaceOnUse" gradientTransform="translate(9.99861 10.0005) rotate(114.172) scale(9.86493 9.86493)">
<stop stop-color="#FFD2B9"/>
<stop offset="0.289583" stop-color="#C99BED"/>
<stop offset="1" stop-color="#0075FF"/>
</radialGradient>
<radialGradient id="paint8_radial_4071_10214" cx="0" cy="0" r="1" gradientUnits="userSpaceOnUse" gradientTransform="translate(9.99767 9.99999) rotate(180) scale(11.9881 11.9881)">
<stop stop-color="#6D28FF"/>
<stop offset="1" stop-color="#F7A7F9"/>
</radialGradient>
<radialGradient id="paint9_radial_4071_10214" cx="0" cy="0" r="1" gradientUnits="userSpaceOnUse" gradientTransform="translate(10.0005 9.99913) rotate(-90) scale(9.20677 9.20676)">
<stop stop-color="#A273FF"/>
<stop offset="0.5" stop-color="#9FAEFF"/>
<stop offset="1" stop-color="#AAF2E1"/>
</radialGradient>
<radialGradient id="paint10_radial_4071_10214" cx="0" cy="0" r="1" gradientUnits="userSpaceOnUse" gradientTransform="translate(9.99804 9.99976) rotate(90) scale(9.21614 9.21613)">
<stop offset="0.0002144" stop-color="#FFCD6B"/>
<stop offset="1" stop-color="#EB5EDF"/>
</radialGradient>
<radialGradient id="paint11_radial_4071_10214" cx="0" cy="0" r="1" gradientUnits="userSpaceOnUse" gradientTransform="translate(10.0007 10.0002) rotate(-139.191) scale(9.05454 9.05452)">
<stop stop-color="#A273FF"/>
<stop offset="1" stop-color="#4331E9"/>
</radialGradient>
<radialGradient id="paint12_radial_4071_10214" cx="0" cy="0" r="1" gradientUnits="userSpaceOnUse" gradientTransform="translate(10.0011 9.99998) rotate(180) scale(9.22237 9.22235)">
<stop stop-color="#FFF3D0"/>
<stop offset="1" stop-color="#FFC044"/>
</radialGradient>
<radialGradient id="paint13_radial_4071_10214" cx="0" cy="0" r="1" gradientUnits="userSpaceOnUse" gradientTransform="translate(10.0008 10.0002) rotate(-139.191) scale(9.05454 9.05452)">
<stop stop-color="#A273FF"/>
<stop offset="1" stop-color="#4331E9"/>
</radialGradient>
<clipPath id="clip0_4071_10214">
<rect width="18" height="18" fill="white" transform="translate(1 1)"/>
</clipPath>
</defs>
</svg>
