<svg width="32" height="32" viewBox="0 0 32 32" fill="none" xmlns="http://www.w3.org/2000/svg">
<path d="M19.3288 22.2869C19.4999 22.1727 19.7368 22.246 19.807 22.4349L22.4673 29.5913C22.5528 29.8214 22.3372 30.0503 22.0915 29.9903L12.297 27.5971C12.0336 27.5327 11.9711 27.1992 12.1946 27.0501L19.3288 22.2869Z" fill="url(#paint0_linear_6878_21433)"/>
<path d="M21.047 20.7073C21.0347 20.6742 21.0284 20.6394 21.0284 20.6043V13.3919C21.0284 13.1879 20.825 13.0412 20.6221 13.0991L12.2293 15.4911C12.0265 15.5489 11.823 15.4023 11.823 15.1983V10.5371C11.823 10.4418 11.8692 10.352 11.9477 10.2942L22.8846 2.25616C23.0366 2.14445 23.2558 2.1871 23.351 2.34692L29.9579 13.4391C30.0047 13.5176 30.0129 13.6122 29.9803 13.6972L24.4178 28.183C24.3152 28.4502 23.9226 28.4482 23.8229 28.1799L21.047 20.7073Z" fill="url(#paint1_linear_6878_21433)"/>
<path d="M9.02256 2.88131C9.07538 2.83142 9.14464 2.80094 9.21832 2.79514L19.3127 2.00114C19.628 1.97633 19.7819 2.36374 19.5301 2.54848L10.9262 8.86098C10.8465 8.91941 10.7429 8.93809 10.6468 8.91136L4.98103 7.33625C4.74799 7.27146 4.67393 6.98836 4.84722 6.82471L9.02256 2.88131Z" fill="url(#paint2_linear_6878_21433)"/>
<path d="M3.40391 8.9212C3.42805 8.73496 3.61904 8.61361 3.80599 8.66574L9.81063 10.3401C9.94606 10.3779 10.0393 10.4975 10.0393 10.6334V17.4126C10.0393 17.6167 10.2429 17.7634 10.4458 17.7054L18.7804 15.324C18.9833 15.266 19.1869 15.4127 19.1869 15.6168V19.9228C19.1869 20.0228 19.1361 20.1164 19.051 20.1735L9.7027 26.4402C9.58078 26.5219 9.41636 26.5109 9.30726 26.4138L2.10184 19.9981C2.02679 19.9313 1.98978 19.8336 2.00245 19.7359L3.40391 8.9212Z" fill="url(#paint3_linear_6878_21433)"/>
<defs>
<linearGradient id="paint0_linear_6878_21433" x1="24.1667" y1="7.25" x2="2" y2="30" gradientUnits="userSpaceOnUse">
<stop offset="0.015625" stop-color="#3294FF"/>
<stop offset="1" stop-color="#005BBE"/>
</linearGradient>
<linearGradient id="paint1_linear_6878_21433" x1="24.1667" y1="7.25" x2="2" y2="30" gradientUnits="userSpaceOnUse">
<stop offset="0.015625" stop-color="#3294FF"/>
<stop offset="1" stop-color="#005BBE"/>
</linearGradient>
<linearGradient id="paint2_linear_6878_21433" x1="24.1667" y1="7.25" x2="2" y2="30" gradientUnits="userSpaceOnUse">
<stop offset="0.015625" stop-color="#3294FF"/>
<stop offset="1" stop-color="#005BBE"/>
</linearGradient>
<linearGradient id="paint3_linear_6878_21433" x1="24.1667" y1="7.25" x2="2" y2="30" gradientUnits="userSpaceOnUse">
<stop offset="0.015625" stop-color="#3294FF"/>
<stop offset="1" stop-color="#005BBE"/>
</linearGradient>
</defs>
</svg>
