<svg width="20" height="20" viewBox="0 0 20 20" fill="none" xmlns="http://www.w3.org/2000/svg">
<path d="M19 10C19 6.521 17.8108 3 15.5385 3L12.4615 3C10.1892 3 9 6.521 9 10C9 13.479 10.1892 17 12.4615 17L15.5385 17C17.8108 17 19 13.479 19 10ZM12.4615 4.4L13.3823 4.4C13.1065 4.84337 12.8846 5.31282 12.7208 5.8L11.2738 5.8C11.6692 4.8816 12.14 4.4 12.4615 4.4ZM12.3477 12.8L10.8315 12.8C10.6938 12.1931 10.5931 11.4931 10.5562 10.7L12.0946 10.7C12.1261 11.4044 12.2106 12.1061 12.3477 12.8ZM10.5554 9.3C10.5858 8.59446 10.6779 7.89224 10.8308 7.2L12.3469 7.2C12.2131 7.8713 12.1262 8.5804 12.0931 9.3L10.5554 9.3ZM11.2738 14.2L12.7208 14.2C12.8846 14.6872 13.1065 15.1566 13.3823 15.6L12.4615 15.6C12.14 15.6 11.6692 15.1191 11.2738 14.2ZM13.6154 10C13.6154 6.3761 14.8854 4.4 15.5385 4.4C16.1915 4.4 17.4615 6.3761 17.4615 10C17.4615 13.6239 16.1915 15.6 15.5385 15.6C14.8854 15.6 13.6154 13.6239 13.6154 10Z" fill="white"/>
<path d="M0 6C0 5.44772 0.447715 5 1 5H7C7.55229 5 8 5.44772 8 6C8 6.55228 7.55228 7 7 7H1C0.447715 7 0 6.55228 0 6Z" fill="white"/>
<path d="M2 10C2 9.44772 2.44772 9 3 9H7C7.55228 9 8 9.44772 8 10C8 10.5523 7.55228 11 7 11H3C2.44772 11 2 10.5523 2 10Z" fill="white"/>
<path d="M4 14C4 13.4477 4.44772 13 5 13H7C7.55229 13 8 13.4477 8 14C8 14.5523 7.55228 15 7 15H5C4.44771 15 4 14.5523 4 14Z" fill="white"/>
</svg>
