<svg width="20" height="20" viewBox="0 0 20 20" fill="none" xmlns="http://www.w3.org/2000/svg">
<path d="M16.4062 9.50781C17.6615 10.0391 18.2891 10.9401 18.2891 12.2109C18.2891 13.2214 17.875 14.0599 17.0469 14.7266C16.1771 15.4297 15.026 15.7812 13.5938 15.7812C12.2135 15.7812 11.1042 15.4609 10.2656 14.8203L10.2344 12.7344L10.3125 12.6406C10.9375 13.4896 12.026 13.9141 13.5781 13.9141C15.3906 13.9141 16.2969 13.3125 16.2969 12.1094C16.2969 11.6771 16.0312 11.3385 15.5 11.0938C15.0208 10.875 14.4635 10.7656 13.8281 10.7656C12.9531 10.7656 12.2812 10.9141 11.8125 11.2109L11.7656 11.1562L11.8438 9.3125C12.474 9.14062 13.1354 9.05469 13.8281 9.05469H14.2344C14.3802 9.05469 14.5234 9.0599 14.6641 9.07031C14.9974 8.8724 15.2135 8.57552 15.3125 8.17969C15.3438 8.07031 15.3594 7.96094 15.3594 7.85156C15.3594 7.73698 15.3255 7.6224 15.2578 7.50781C15.1901 7.38802 15.0885 7.28385 14.9531 7.19531C14.6562 6.99219 14.3203 6.89062 13.9453 6.89062C13.5755 6.89062 13.263 6.91146 13.0078 6.95312C12.7526 6.99479 12.5052 7.05469 12.2656 7.13281C11.75 7.30469 11.3646 7.51823 11.1094 7.77344L11.0703 7.73438L10.9766 5.73438C11.8151 5.24479 12.8333 5 14.0312 5C14.974 5 15.7604 5.21615 16.3906 5.64844C17.0677 6.11719 17.4062 6.74219 17.4062 7.52344C17.4062 7.95052 17.3125 8.33594 17.125 8.67969C16.9375 9.01823 16.6979 9.29427 16.4062 9.50781ZM13.9375 9.26562C14.0677 9.26562 14.1771 9.25521 14.2656 9.23438L13.9375 9.26562Z" fill="white"/>
<path d="M1.5 7.42188H3.71094L5.61719 12.7969L7.46094 7.42188H9.625L6.39844 15.5859H4.78906L1.5 7.42188Z" fill="white"/>
</svg>
