<svg width="20" height="20" viewBox="0 0 20 20" fill="none" xmlns="http://www.w3.org/2000/svg">
<g clip-path="url(#clip0_4072_10242)">
<path d="M18.4155 5.80395L12.04 16.9792C11.8473 17.3163 11.5703 17.5961 11.237 17.7906C10.9036 17.9851 10.5255 18.0875 10.1407 18.0875C9.75592 18.0875 9.37788 17.9851 9.04455 17.7906C8.71116 17.5961 8.43423 17.3163 8.24144 16.9792L7.12383 15.0216C7.1202 15.0168 7.11866 15.0107 7.11955 15.0047C7.12038 14.9986 7.12353 14.9932 7.12834 14.9896C7.13315 14.9859 7.1392 14.9844 7.14514 14.9853C7.15108 14.9861 7.15642 14.9893 7.16005 14.9942C7.35937 15.1934 7.60114 15.3438 7.86679 15.4338C8.13237 15.524 8.41488 15.5514 8.69257 15.514C8.97027 15.4767 9.23585 15.3756 9.46902 15.2184C9.70219 15.0613 9.89676 14.8522 10.0378 14.6073L15.3748 5.24301C15.5155 4.99578 15.5981 4.71909 15.6162 4.43437C15.6343 4.14966 15.5874 3.86455 15.4791 3.60113C15.3708 3.3377 15.2041 3.10303 14.9918 2.91529C14.7795 2.72754 14.5274 2.59176 14.2549 2.51845C14.2489 2.51845 14.2432 2.51604 14.239 2.51174C14.2347 2.50745 14.2323 2.50162 14.2323 2.49555C14.2323 2.48948 14.2347 2.48366 14.239 2.47937C14.2432 2.47507 14.2489 2.47266 14.2549 2.47266H16.5174C16.9024 2.47308 17.2805 2.576 17.6138 2.77109C17.9471 2.96619 18.2238 3.24658 18.4161 3.58413C18.6084 3.92166 18.7096 4.30447 18.7095 4.69412C18.7094 5.08376 18.608 5.46651 18.4155 5.80395ZM10.8681 2.47266H8.65772C8.65321 2.47417 8.64929 2.47708 8.6465 2.48098C8.64371 2.48489 8.64216 2.48959 8.64216 2.49441C8.64216 2.49923 8.64371 2.50393 8.6465 2.50783C8.64929 2.51174 8.65321 2.51465 8.65772 2.51616C8.80663 2.57435 8.9413 2.66439 9.05262 2.78012C9.16395 2.89584 9.24927 3.03453 9.30277 3.18669C9.35627 3.33886 9.37663 3.50092 9.36256 3.6618C9.34843 3.82268 9.30022 3.97858 9.22107 4.11884L5.99941 9.75801C5.91617 9.90097 5.80268 10.0235 5.66708 10.1169C5.53148 10.2102 5.37715 10.272 5.21515 10.2979C5.05315 10.3237 4.88751 10.3129 4.73013 10.2663C4.57274 10.2196 4.42751 10.1383 4.30486 10.0282C4.30126 10.0233 4.2959 10.0201 4.28996 10.0192C4.28402 10.0184 4.27798 10.0199 4.27319 10.0236C4.26838 10.0272 4.26521 10.0326 4.26436 10.0386C4.26351 10.0446 4.26506 10.0508 4.26866 10.0556L5.39987 12.0429C5.52688 12.266 5.70969 12.4512 5.92993 12.58C6.15015 12.7088 6.40002 12.7766 6.65435 12.7766C6.90871 12.7766 7.15862 12.7088 7.37884 12.58C7.59906 12.4512 7.78188 12.266 7.90888 12.0429L12.1237 4.67062C12.2509 4.44774 12.3178 4.1949 12.3177 3.93754C12.3177 3.68018 12.2506 3.42738 12.1233 3.20457C11.9961 2.98177 11.813 2.79682 11.5927 2.66833C11.3723 2.53985 11.1224 2.47236 10.8681 2.47266ZM3.19628 2.47266C2.81907 2.47266 2.45033 2.58586 2.13668 2.79794C1.82305 3.01002 1.57859 3.31146 1.43424 3.66413C1.28989 4.01681 1.25212 4.40488 1.32571 4.77929C1.3993 5.15369 1.58094 5.49759 1.84768 5.76752C2.1144 6.03745 2.45423 6.22128 2.8242 6.29574C3.19416 6.37022 3.57764 6.332 3.92613 6.18592C4.27463 6.03983 4.5725 5.79245 4.78206 5.47505C4.99163 5.15764 5.10349 4.78448 5.10349 4.40275C5.10379 4.1492 5.05466 3.89808 4.95892 3.66378C4.86318 3.42947 4.7227 3.21658 4.54554 3.0373C4.36838 2.85801 4.15802 2.71585 3.92649 2.61896C3.69496 2.52208 3.44682 2.47236 3.19628 2.47266Z" fill="url(#paint0_linear_4072_10242)"/>
</g>
<defs>
<linearGradient id="paint0_linear_4072_10242" x1="18.4867" y1="14.8294" x2="-1.58168" y2="1.36272" gradientUnits="userSpaceOnUse">
<stop stop-color="#5433FF"/>
<stop offset="0.5" stop-color="#20BDFF"/>
<stop offset="1" stop-color="#5CFFA2"/>
</linearGradient>
<clipPath id="clip0_4072_10242">
<rect width="20" height="20" fill="white"/>
</clipPath>
</defs>
</svg>
