<svg width="20" height="20" viewBox="0 0 20 20" fill="none" xmlns="http://www.w3.org/2000/svg">
<path d="M4.125 15.8119L7.59805 7.99767C8.10605 6.85527 8.93613 5.88887 9.98867 5.21804L14.8662 2.09634C14.9658 2.03324 15.082 2.00003 15.1982 2.00003C15.5369 1.99671 15.8125 2.27235 15.8125 2.61441V2.66754C15.8125 2.75389 15.7959 2.83691 15.766 2.91661L13.7805 7.87148C13.7174 8.02756 13.6875 8.19361 13.6875 8.35966C13.6875 8.54231 13.7273 8.72496 13.8004 8.89433L16.875 15.8119H9.99863L10.3904 14.6363L11.7318 14.1879C11.9477 14.1149 12.0938 13.9123 12.0938 13.6832C12.0938 13.454 11.9477 13.2514 11.7318 13.1784L10.3904 12.73L9.94219 11.3884C9.86914 11.1758 9.6666 11.0297 9.4375 11.0297C9.2084 11.0297 9.00586 11.1758 8.93281 11.3917L8.48457 12.7334L7.14316 13.1817C6.92734 13.2547 6.78125 13.4573 6.78125 13.6865C6.78125 13.9156 6.92734 14.1182 7.14316 14.1913L8.48457 14.6396L8.87637 15.8119H4.125ZM11.2836 6.69586C11.2471 6.58627 11.1475 6.51321 11.0312 6.51321C10.915 6.51321 10.8154 6.58627 10.7789 6.69586L10.5564 7.36669L9.88574 7.5892C9.77617 7.62573 9.70312 7.72536 9.70312 7.84159C9.70312 7.95782 9.77617 8.05745 9.88574 8.09398L10.5564 8.31649L10.7789 8.98732C10.8154 9.09691 10.915 9.16997 11.0312 9.16997C11.1475 9.16997 11.2471 9.09691 11.2836 8.98732L11.5061 8.31649L12.1768 8.09398C12.2863 8.05745 12.3594 7.95782 12.3594 7.84159C12.3594 7.72536 12.2863 7.62573 12.1768 7.5892L11.5061 7.36669L11.2836 6.69586ZM3.0625 16.8746H17.9375C18.5252 16.8746 19 17.3495 19 17.9373C19 18.5251 18.5252 19 17.9375 19H3.0625C2.4748 19 2 18.5251 2 17.9373C2 17.3495 2.4748 16.8746 3.0625 16.8746Z" fill="white"/>
</svg>
