<svg width="32" height="32" viewBox="0 0 32 32" fill="none" xmlns="http://www.w3.org/2000/svg">
<g clip-path="url(#clip0_7138_33107)">
<path d="M26.5442 12.7639L22.8949 16.3106C23.0952 16.9591 23.1992 17.6395 23.1992 18.3354C23.1992 20.2045 22.4506 21.9623 21.0902 23.2842C19.7306 24.606 17.922 25.3339 15.9992 25.3339C14.0764 25.3339 12.2678 24.606 10.9082 23.2842C9.54863 21.9623 8.79922 20.2053 8.79922 18.3354C8.79922 17.6395 8.90326 16.9591 9.10352 16.3106L5.45424 12.7639C4.52725 14.4197 4 16.3184 4 18.3362C4 24.778 9.37262 30 16 30C22.6274 30 28 24.778 28 18.3362C28 16.3184 27.4728 14.4197 26.545 12.7647L26.5442 12.7639Z" fill="#0657F9"/>
<path d="M13.6 20.6693H18.4V13.2458L26.5708 5.30071L23.1757 2.00156L16.0023 8.97742L8.82346 2L5.4292 5.29915L13.6 13.2411V20.6693Z" fill="#0657F9"/>
</g>
<defs>
<clipPath id="clip0_7138_33107">
<rect width="24" height="28" fill="white" transform="translate(4 2)"/>
</clipPath>
</defs>
</svg>
